1600 0 1 0           
10 Cubit 10.2 17 ACIS 16.0.1 Linux 24 Sat Jan 29 23:27:29 2011 
1 9.9999999999999995e-07 1e-10 
body $-1 -1 -1 $-1 $1 $-1 $2 T -7.3430293986882544 -8.4789999999999992 0 7.3430293986882553 8.4789999999999992 1 #
lump $-1 -1 -1 $-1 $-1 $3 $0 T -7.3430293986882544 -8.4789999999999992 0 7.3430293986882553 8.4789999999999992 1 #
transform $-1 -1 1 0 0 0 1 0 0 0 1 0 0 0 1 no_rotate no_reflect no_shear #
shell $-1 -1 -1 $-1 $-1 $-1 $4 $-1 $1 T -7.3430293986882544 -8.4789999999999992 0 7.3430293986882553 8.4789999999999992 1 #
face $-1 -1 -1 $-1 $5 $6 $3 $-1 $7 forward single T -7.3430293986882544 -8.4789999999999992 1 7.3430293986882553 8.4789999999999992 1 F #
face $-1 -1 -1 $-1 $8 $9 $3 $-1 $10 reversed single T -7.3430293986882544 -8.4789999999999992 0 7.3430293986882553 8.4789999999999992 0 F #
loop $-1 -1 -1 $-1 $-1 $11 $4 T -7.3430293986882544 -8.4789999999999992 1 7.3430293986882553 8.4789999999999992 1 unknown #
plane-surface $-1 -1 -1 $-1 0 0 1 0 0 1 1 0 0 forward_v I I I I #
face $-1 -1 -1 $-1 $12 $13 $3 $-1 $14 reversed single T -1.7763568394002505e-15 -8.4789999999999992 0 7.3430293986882553 -4.2394999999999987 1 F #
loop $-1 -1 -1 $-1 $-1 $15 $5 T -7.3430293986882544 -8.4789999999999992 0 7.3430293986882553 8.4789999999999992 0 unknown #
plane-surface $-1 -1 -1 $-1 0 0 0 0 0 1 1 0 0 forward_v I I I I #
coedge $-1 -1 -1 $-1 $16 $17 $18 $19 forward $6 $-1 #
face $-1 -1 -1 $-1 $20 $21 $3 $-1 $22 reversed single T -7.3430293986882544 -8.4789999999999992 0 -1.5575670314955609e-15 -4.2394999999999996 1 F #
loop $-1 -1 -1 $-1 $-1 $23 $8 T -1.7763568394002505e-15 -8.4789999999999992 0 7.3430293986882553 -4.2394999999999987 1 unknown #
plane-surface $-1 -1 -1 $-1 3.6715146993441263 -6.3592499999999994 0.5 -0.5 0.86602540378443871 0 0 0 1 forward_v I I I I #
coedge $-1 -1 -1 $-1 $24 $25 $26 $27 forward $9 $-1 #
coedge $-1 -1 -1 $-1 $28 $11 $29 $30 forward $6 $-1 #
coedge $-1 -1 -1 $-1 $11 $31 $32 $33 forward $6 $-1 #
coedge $-1 -1 -1 $-1 $34 $35 $11 $19 reversed $36 $-1 #
edge $-1 -1 -1 $-1 $37 -4.2394999999999987 $38 4.2394999999999987 $18 $39 forward @7 unknown T 7.3430293986882544 -4.2394999999999987 1 7.3430293986882544 4.2394999999999987 1 #
face $-1 -1 -1 $-1 $40 $41 $3 $-1 $42 reversed single T -7.3430293986882544 -4.2394999999999996 0 -7.3430293986882544 4.2394999999999996 1 F #
loop $-1 -1 -1 $-1 $-1 $43 $12 T -7.3430293986882544 -8.4789999999999992 0 -1.5575670314955609e-15 -4.2394999999999996 1 unknown #
plane-surface $-1 -1 -1 $-1 -3.6715146993441281 -6.3592499999999994 0.5 0.50000000000000011 0.8660254037844386 0 0 0 -1 forward_v I I I I #
coedge $-1 -1 -1 $-1 $44 $32 $45 $46 forward $13 $-1 #
coedge $-1 -1 -1 $-1 $47 $15 $44 $48 forward $9 $-1 #
coedge $-1 -1 -1 $-1 $15 $49 $50 $51 forward $9 $-1 #
coedge $-1 -1 -1 $-1 $35 $34 $15 $27 reversed $36 $-1 #
edge $-1 -1 -1 $-1 $52 -4.2394999999999987 $53 4.2394999999999987 $26 $54 forward @7 unknown T 7.3430293986882544 -4.2394999999999987 0 7.3430293986882544 4.2394999999999987 0 #
coedge $-1 -1 -1 $-1 $55 $16 $56 $57 forward $6 $-1 #
coedge $-1 -1 -1 $-1 $58 $59 $16 $30 reversed $60 $-1 #
edge $-1 -1 -1 $-1 $38 -4.2394999999999996 $61 4.2394999999999996 $29 $62 forward @7 unknown T 5.191890104985202e-16 4.2394999999999987 1 7.3430293986882544 8.4789999999999992 1 #
coedge $-1 -1 -1 $-1 $17 $55 $63 $64 forward $6 $-1 #
coedge $-1 -1 -1 $-1 $23 $65 $17 $33 reversed $13 $-1 #
edge $-1 -1 -1 $-1 $66 -4.2395000000000005 $37 4.2395000000000014 $32 $67 forward @7 unknown T -1.7763568394002505e-15 -8.4789999999999992 1 7.3430293986882553 -4.2394999999999987 1 #
coedge $-1 -1 -1 $-1 $26 $18 $65 $68 forward $36 $-1 #
coedge $-1 -1 -1 $-1 $18 $26 $58 $69 reversed $36 $-1 #
loop $-1 -1 -1 $-1 $-1 $34 $70 T 7.3430293986882544 -4.2394999999999987 0 7.3430293986882544 4.2394999999999987 1 unknown #
vertex $-1 -1 -1 $-1 $19 $71 #
vertex $-1 -1 -1 $-1 $19 $72 #
straight-curve $-1 -1 -1 $-1 7.3430293986882544 0 1 0 1 0 I I #
face $-1 -1 -1 $-1 $73 $74 $3 $-1 $75 reversed single T -7.3430293986882544 4.2394999999999987 0 5.191890104985202e-16 8.4789999999999992 1 F #
loop $-1 -1 -1 $-1 $-1 $76 $20 T -7.3430293986882544 -4.2394999999999996 0 -7.3430293986882544 4.2394999999999996 1 unknown #
plane-surface $-1 -1 -1 $-1 -7.3430293986882544 -4.4408920985006262e-16 0.5 1 0 0 0 0 -1 forward_v I I I I #
coedge $-1 -1 -1 $-1 $77 $63 $78 $79 forward $21 $-1 #
coedge $-1 -1 -1 $-1 $65 $23 $24 $48 reversed $13 $-1 #
coedge $-1 -1 -1 $-1 $63 $77 $23 $46 reversed $21 $-1 #
edge $-1 -1 -1 $-1 $66 -0.5 $80 0.5 $45 $81 forward @7 unknown T -1.5575670314955609e-15 -8.4789999999999992 0 -1.5575670314955609e-15 -8.4789999999999992 1 #
coedge $-1 -1 -1 $-1 $82 $24 $77 $83 forward $9 $-1 #
edge $-1 -1 -1 $-1 $53 -4.2395000000000014 $80 4.2395000000000005 $44 $84 forward @7 unknown T -1.7763568394002505e-15 -8.4789999999999992 0 7.3430293986882553 -4.2394999999999987 0 #
coedge $-1 -1 -1 $-1 $25 $82 $85 $86 forward $9 $-1 #
coedge $-1 -1 -1 $-1 $59 $58 $25 $51 reversed $60 $-1 #
edge $-1 -1 -1 $-1 $87 -4.2394999999999996 $52 4.2394999999999996 $50 $88 forward @7 unknown T 5.191890104985202e-16 4.2394999999999987 0 7.3430293986882544 8.4789999999999992 0 #
vertex $-1 -1 -1 $-1 $27 $89 #
vertex $-1 -1 -1 $-1 $68 $90 #
straight-curve $-1 -1 -1 $-1 7.3430293986882544 0 0 0 -1 0 I I #
coedge $-1 -1 -1 $-1 $31 $28 $91 $92 forward $6 $-1 #
coedge $-1 -1 -1 $-1 $93 $94 $28 $57 reversed $74 $-1 #
edge $-1 -1 -1 $-1 $61 -4.2394999999999996 $95 4.2394999999999996 $56 $96 forward @7 unknown T -7.3430293986882544 4.2394999999999987 1 5.191890104985202e-16 8.4789999999999992 1 #
coedge $-1 -1 -1 $-1 $50 $29 $35 $69 forward $60 $-1 #
coedge $-1 -1 -1 $-1 $29 $50 $93 $97 reversed $60 $-1 #
loop $-1 -1 -1 $-1 $-1 $58 $73 T 5.191890104985202e-16 4.2394999999999987 0 7.3430293986882544 8.4789999999999992 1 unknown #
vertex $-1 -1 -1 $-1 $30 $98 #
straight-curve $-1 -1 -1 $-1 3.6715146993441277 6.3592499999999994 1 -0.86602540378443771 0.49999999999999961 0 I I #
coedge $-1 -1 -1 $-1 $43 $45 $31 $64 reversed $21 $-1 #
edge $-1 -1 -1 $-1 $99 -4.2394999999999987 $66 4.2394999999999987 $63 $100 forward @7 unknown T -7.3430293986882544 -8.4789999999999992 1 -1.5575670314955609e-15 -4.2394999999999996 1 #
coedge $-1 -1 -1 $-1 $32 $44 $34 $68 reversed $13 $-1 #
vertex $-1 -1 -1 $-1 $64 $101 #
straight-curve $-1 -1 -1 $-1 3.6715146993441263 -6.3592499999999994 1 0.86602540378443871 0.5 0 I I #
edge $-1 -1 -1 $-1 $37 -0.5 $53 0.5 $34 $102 forward @7 unknown T 7.3430293986882544 -4.2394999999999987 0 7.3430293986882544 -4.2394999999999987 1 #
edge $-1 -1 -1 $-1 $38 -0.5 $52 0.5 $35 $103 forward @7 unknown T 7.3430293986882544 4.2394999999999987 0 7.3430293986882544 4.2394999999999987 1 #
face $-1 -1 -1 $-1 $-1 $36 $3 $-1 $104 reversed single T 7.3430293986882544 -4.2394999999999987 0 7.3430293986882544 4.2394999999999987 1 F #
point $-1 -1 -1 $-1 7.3430293986882544 -4.2394999999999987 1 #
point $-1 -1 -1 $-1 7.3430293986882544 4.2394999999999987 1 #
face $-1 -1 -1 $-1 $70 $60 $3 $-1 $105 reversed single T 5.191890104985202e-16 4.2394999999999987 0 7.3430293986882544 8.4789999999999992 1 F #
loop $-1 -1 -1 $-1 $-1 $93 $40 T -7.3430293986882544 4.2394999999999987 0 5.191890104985202e-16 8.4789999999999992 1 unknown #
plane-surface $-1 -1 -1 $-1 -3.6715146993441268 6.3592499999999994 0.5 0.5 -0.8660254037844386 0 0 0 -1 forward_v I I I I #
coedge $-1 -1 -1 $-1 $106 $91 $94 $107 forward $41 $-1 #
coedge $-1 -1 -1 $-1 $45 $43 $47 $83 reversed $21 $-1 #
coedge $-1 -1 -1 $-1 $91 $106 $43 $79 reversed $41 $-1 #
edge $-1 -1 -1 $-1 $99 -0.5 $108 0.5 $78 $109 forward @7 unknown T -7.3430293986882544 -4.2394999999999996 0 -7.3430293986882544 -4.2394999999999996 1 #
vertex $-1 -1 -1 $-1 $83 $110 #
straight-curve $-1 -1 -1 $-1 -1.5575670314955609e-15 -8.4789999999999992 0.5 0 0 -1 I I #
coedge $-1 -1 -1 $-1 $49 $47 $106 $111 forward $9 $-1 #
edge $-1 -1 -1 $-1 $80 -4.2394999999999987 $108 4.2394999999999987 $77 $112 forward @7 unknown T -7.3430293986882544 -8.4789999999999992 0 -1.5575670314955609e-15 -4.2394999999999996 0 #
straight-curve $-1 -1 -1 $-1 3.6715146993441263 -6.3592499999999994 0 -0.86602540378443871 -0.5 0 I I #
coedge $-1 -1 -1 $-1 $94 $93 $49 $86 reversed $74 $-1 #
edge $-1 -1 -1 $-1 $113 -4.2394999999999996 $87 4.2394999999999996 $85 $114 forward @7 unknown T -7.3430293986882544 4.2394999999999987 0 5.191890104985202e-16 8.4789999999999992 0 #
vertex $-1 -1 -1 $-1 $51 $115 #
straight-curve $-1 -1 -1 $-1 3.6715146993441277 6.3592499999999994 0 0.86602540378443771 -0.49999999999999961 0 I I #
point $-1 -1 -1 $-1 7.3430293986882544 4.2394999999999987 0 #
point $-1 -1 -1 $-1 7.3430293986882544 -4.2394999999999987 0 #
coedge $-1 -1 -1 $-1 $76 $78 $55 $92 reversed $41 $-1 #
edge $-1 -1 -1 $-1 $95 -4.2394999999999996 $99 4.2394999999999996 $91 $116 forward @7 unknown T -7.3430293986882544 -4.2394999999999996 1 -7.3430293986882544 4.2394999999999996 1 #
coedge $-1 -1 -1 $-1 $85 $56 $59 $97 forward $74 $-1 #
coedge $-1 -1 -1 $-1 $56 $85 $76 $107 reversed $74 $-1 #
vertex $-1 -1 -1 $-1 $57 $117 #
straight-curve $-1 -1 -1 $-1 -3.6715146993441268 6.3592499999999994 1 -0.86602540378443793 -0.49999999999999961 0 I I #
edge $-1 -1 -1 $-1 $61 -0.5 $87 0.5 $59 $118 forward @7 unknown T 5.191890104985202e-16 8.4789999999999992 0 5.191890104985202e-16 8.4789999999999992 1 #
point $-1 -1 -1 $-1 5.191890104985202e-16 8.4789999999999992 1 #
vertex $-1 -1 -1 $-1 $92 $119 #
straight-curve $-1 -1 -1 $-1 -3.6715146993441281 -6.3592499999999994 1 0.8660254037844386 -0.50000000000000011 0 I I #
point $-1 -1 -1 $-1 -1.5575670314955609e-15 -8.4789999999999992 1 #
straight-curve $-1 -1 -1 $-1 7.3430293986882544 -4.2394999999999987 0.5 0 0 -1 I I #
straight-curve $-1 -1 -1 $-1 7.3430293986882544 4.2394999999999987 0.5 0 0 -1 I I #
plane-surface $-1 -1 -1 $-1 7.3430293986882544 0 0.5 -1 0 0 0 0 1 forward_v I I I I #
plane-surface $-1 -1 -1 $-1 3.6715146993441277 6.3592499999999994 0.5 -0.50000000000000011 -0.86602540378443849 0 0 0 1 forward_v I I I I #
coedge $-1 -1 -1 $-1 $78 $76 $82 $111 reversed $41 $-1 #
edge $-1 -1 -1 $-1 $95 -0.5 $113 0.5 $94 $120 forward @7 unknown T -7.3430293986882544 4.2394999999999987 0 -7.3430293986882544 4.2394999999999987 1 #
vertex $-1 -1 -1 $-1 $111 $121 #
straight-curve $-1 -1 -1 $-1 -7.3430293986882544 -4.2394999999999996 0.5 0 0 -1 I I #
point $-1 -1 -1 $-1 -1.5575670314955609e-15 -8.4789999999999992 0 #
edge $-1 -1 -1 $-1 $108 -4.2394999999999996 $113 4.2394999999999996 $106 $122 forward @7 unknown T -7.3430293986882544 -4.2394999999999996 0 -7.3430293986882544 4.2394999999999996 0 #
straight-curve $-1 -1 -1 $-1 -3.6715146993441281 -6.3592499999999994 0 -0.8660254037844386 0.50000000000000011 0 I I #
vertex $-1 -1 -1 $-1 $86 $123 #
straight-curve $-1 -1 -1 $-1 -3.6715146993441268 6.3592499999999994 0 0.86602540378443793 0.49999999999999961 0 I I #
point $-1 -1 -1 $-1 5.191890104985202e-16 8.4789999999999992 0 #
straight-curve $-1 -1 -1 $-1 -7.3430293986882544 -4.4408920985006262e-16 1 0 -1 0 I I #
point $-1 -1 -1 $-1 -7.3430293986882544 4.2394999999999987 1 #
straight-curve $-1 -1 -1 $-1 5.191890104985202e-16 8.4789999999999992 0.5 0 0 -1 I I #
point $-1 -1 -1 $-1 -7.3430293986882544 -4.2394999999999996 1 #
straight-curve $-1 -1 -1 $-1 -7.3430293986882544 4.2394999999999987 0.5 0 0 -1 I I #
point $-1 -1 -1 $-1 -7.3430293986882544 -4.2394999999999996 0 #
straight-curve $-1 -1 -1 $-1 -7.3430293986882544 -4.4408920985006262e-16 0 0 1 0 I I #
point $-1 -1 -1 $-1 -7.3430293986882544 4.2394999999999987 0 #
End-of-ACIS-data 