1600 0 4 0           
10 Cubit 10.2 17 ACIS 16.0.1 Linux 24 Sat Jan 29 23:10:48 2011 
1 9.9999999999999995e-07 1e-10 
body $4 -1 -1 $-1 $5 $-1 $6 T -1.7763568394002505e-15 4.2389999999999999 0 7.843 9.3439999999999994 1 #
body $7 -1 -1 $-1 $8 $-1 $9 T 7.343 -4.2389999999999999 0 8.343 4.2389999999999999 1 #
body $10 -1 -1 $-1 $11 $-1 $12 T 7.843 4.2389999999999999 0 15.685000000000002 9.3439999999999994 1 #
body $13 -1 -1 $-1 $14 $-1 $15 T 7.343 4.2389999999999999 0 8.343 5.1050000000000004 1 #
simple-snl-attrib $-1 -1 $-1 $-1 $0 1 1 1 1 1 1 1 1 1 1 1 1 0 1 0 1 1 1 @17 NEW_SIMPLE_ATTRIB 1 @9 ENTITY_ID 0 3 1 -2147483648 -1 #
lump $16 -1 -1 $-1 $-1 $17 $0 T -1.7763568394002505e-15 4.2389999999999999 0 7.843 9.3439999999999994 1 #
transform $-1 -1 1 0 0 0 1 0 0 0 1 0 0 0 1 no_rotate no_reflect no_shear #
simple-snl-attrib $-1 -1 $-1 $-1 $1 1 1 1 1 1 1 1 1 1 1 1 1 0 1 0 1 1 1 @17 NEW_SIMPLE_ATTRIB 1 @9 ENTITY_ID 0 3 2 -2147483648 -1 #
lump $18 -1 -1 $-1 $-1 $19 $1 T 7.343 -4.2389999999999999 0 8.343 4.2389999999999999 1 #
transform $-1 -1 1 0 0 0 1 0 0 0 1 0 0 0 1 no_rotate no_reflect no_shear #
simple-snl-attrib $-1 -1 $-1 $-1 $2 1 1 1 1 1 1 1 1 1 1 1 1 0 1 0 1 1 1 @17 NEW_SIMPLE_ATTRIB 1 @9 ENTITY_ID 0 3 3 -2147483648 -1 #
lump $20 -1 -1 $-1 $-1 $21 $2 T 7.843 4.2389999999999999 0 15.685000000000002 9.3439999999999994 1 #
transform $-1 -1 1 0 0 0 1 0 0 0 1 0 0 0 1 no_rotate no_reflect no_shear #
simple-snl-attrib $-1 -1 $-1 $-1 $3 1 1 1 1 1 1 1 1 1 1 1 1 0 1 0 1 1 1 @17 NEW_SIMPLE_ATTRIB 1 @9 ENTITY_ID 0 3 4 -2147483648 -1 #
lump $22 -1 -1 $-1 $-1 $23 $3 T 7.343 4.2389999999999999 0 8.343 5.1050000000000004 1 #
transform $-1 -1 1 0 0 0 1 0 0 0 1 0 0 0 1 no_rotate no_reflect no_shear #
simple-snl-attrib $-1 -1 $24 $-1 $5 1 1 1 1 1 1 1 1 1 1 1 1 0 1 0 1 1 1 @17 NEW_SIMPLE_ATTRIB 7 @16 GRAPHICS_OPTIONS @14 geometry color @10 mesh color @19 geometry visibility @15 mesh visibility @11 render mode @11 transparent 0 6 2 2 1 1 0 0 #
shell $-1 -1 -1 $-1 $-1 $-1 $25 $-1 $5 T -1.7763568394002505e-15 4.2389999999999999 0 7.843 9.3439999999999994 1 #
simple-snl-attrib $-1 -1 $26 $-1 $8 1 1 1 1 1 1 1 1 1 1 1 1 0 1 0 1 1 1 @17 NEW_SIMPLE_ATTRIB 7 @16 GRAPHICS_OPTIONS @14 geometry color @10 mesh color @19 geometry visibility @15 mesh visibility @11 render mode @11 transparent 0 6 3 3 1 1 0 0 #
shell $-1 -1 -1 $-1 $-1 $-1 $27 $-1 $8 T 7.343 -4.2389999999999999 0 8.343 4.2389999999999999 1 #
simple-snl-attrib $-1 -1 $28 $-1 $11 1 1 1 1 1 1 1 1 1 1 1 1 0 1 0 1 1 1 @17 NEW_SIMPLE_ATTRIB 7 @16 GRAPHICS_OPTIONS @14 geometry color @10 mesh color @19 geometry visibility @15 mesh visibility @11 render mode @11 transparent 0 6 4 4 1 1 0 0 #
shell $-1 -1 -1 $-1 $-1 $-1 $29 $-1 $11 T 7.843 4.2389999999999999 0 15.685000000000002 9.3439999999999994 1 #
simple-snl-attrib $-1 -1 $30 $-1 $14 1 1 1 1 1 1 1 1 1 1 1 1 0 1 0 1 1 1 @17 NEW_SIMPLE_ATTRIB 7 @16 GRAPHICS_OPTIONS @14 geometry color @10 mesh color @19 geometry visibility @15 mesh visibility @11 render mode @11 transparent 0 6 5 5 1 1 0 0 #
shell $-1 -1 -1 $-1 $-1 $-1 $31 $-1 $14 T 7.343 4.2389999999999999 0 8.343 5.1050000000000004 1 #
simple-snl-attrib $-1 -1 $-1 $16 $5 1 1 1 1 1 1 1 1 1 1 1 1 0 1 0 1 1 1 @17 NEW_SIMPLE_ATTRIB 1 @9 ENTITY_ID 0 3 1 -2147483648 -1 #
face $32 -1 -1 $-1 $33 $34 $17 $-1 $35 reversed single T -1.7763568394002505e-15 4.2389999999999999 0 7.843 9.3439999999999994 0 F #
simple-snl-attrib $-1 -1 $-1 $18 $8 1 1 1 1 1 1 1 1 1 1 1 1 0 1 0 1 1 1 @17 NEW_SIMPLE_ATTRIB 1 @9 ENTITY_ID 0 3 2 -2147483648 -1 #
face $36 -1 -1 $-1 $37 $38 $19 $-1 $39 reversed single T 7.343 -4.2389999999999999 0 8.343 4.2389999999999999 0 F #
simple-snl-attrib $-1 -1 $-1 $20 $11 1 1 1 1 1 1 1 1 1 1 1 1 0 1 0 1 1 1 @17 NEW_SIMPLE_ATTRIB 1 @9 ENTITY_ID 0 3 3 -2147483648 -1 #
face $40 -1 -1 $-1 $41 $42 $21 $-1 $43 reversed single T 7.843 4.2389999999999999 0 15.685000000000002 9.3439999999999994 0 F #
simple-snl-attrib $-1 -1 $-1 $22 $14 1 1 1 1 1 1 1 1 1 1 1 1 0 1 0 1 1 1 @17 NEW_SIMPLE_ATTRIB 1 @9 ENTITY_ID 0 3 4 -2147483648 -1 #
face $44 -1 -1 $-1 $45 $46 $23 $-1 $47 reversed single T 7.343 4.2389999999999999 0 8.343 5.1050000000000004 0 F #
simple-snl-attrib $-1 -1 $48 $-1 $25 1 1 1 1 1 1 1 1 1 1 1 1 0 1 0 1 1 1 @17 NEW_SIMPLE_ATTRIB 2 @11 ENTITY_NAME @7 coolant 0 0 #
face $49 -1 -1 $-1 $50 $51 $17 $-1 $52 forward single T -1.7763568394002505e-15 4.2389999999999999 1 7.843 9.3439999999999994 1 F #
loop $-1 -1 -1 $-1 $-1 $53 $25 T -1.7763568394002505e-15 4.2389999999999999 0 7.843 9.3439999999999994 0 unknown #
plane-surface $-1 -1 -1 $-1 3.9214999999999995 6.7914999999999992 0 0 0 1 1 0 0 forward_v I I I I #
simple-snl-attrib $-1 -1 $54 $-1 $27 1 1 1 1 1 1 1 1 1 1 1 1 0 1 0 1 1 1 @17 NEW_SIMPLE_ATTRIB 2 @11 ENTITY_NAME @9 coolant@A 0 0 #
face $55 -1 -1 $-1 $56 $57 $19 $-1 $58 forward single T 7.343 -4.2389999999999999 1 8.343 4.2389999999999999 1 F #
loop $-1 -1 -1 $-1 $-1 $59 $27 T 7.343 -4.2389999999999999 0 8.343 4.2389999999999999 0 unknown #
plane-surface $-1 -1 -1 $-1 7.8430000000000017 0 0 0 0 1 1 0 0 forward_v I I I I #
simple-snl-attrib $-1 -1 $60 $-1 $29 1 1 1 1 1 1 1 1 1 1 1 1 0 1 0 1 1 1 @17 NEW_SIMPLE_ATTRIB 2 @11 ENTITY_NAME @9 coolant@B 0 0 #
face $61 -1 -1 $-1 $62 $63 $21 $-1 $64 forward single T 7.843 4.2389999999999999 1 15.685000000000002 9.3439999999999994 1 F #
loop $-1 -1 -1 $-1 $-1 $65 $29 T 7.843 4.2389999999999999 0 15.685000000000002 9.3439999999999994 0 unknown #
plane-surface $-1 -1 -1 $-1 11.763999999999998 6.7914999999999992 0 0 0 1 1 0 0 forward_v I I I I #
simple-snl-attrib $-1 -1 $66 $-1 $31 1 1 1 1 1 1 1 1 1 1 1 1 0 1 0 1 1 1 @17 NEW_SIMPLE_ATTRIB 2 @11 ENTITY_NAME @9 coolant@C 0 0 #
face $67 -1 -1 $-1 $68 $69 $23 $-1 $70 forward single T 7.343 4.2389999999999999 1 8.343 5.1050000000000004 1 F #
loop $-1 -1 -1 $-1 $-1 $71 $31 T 7.343 4.2389999999999999 0 8.343 5.1050000000000004 0 unknown #
plane-surface $-1 -1 -1 $-1 7.843 4.5276645497234425 0 0 0 1 1 0 0 forward_v I I I I #
simple-snl-attrib $-1 -1 $-1 $32 $25 1 1 1 1 1 1 1 1 1 1 1 1 0 1 0 1 1 1 @17 NEW_SIMPLE_ATTRIB 1 @9 ENTITY_ID 0 3 1 -2147483648 -1 #
simple-snl-attrib $-1 -1 $-1 $-1 $33 1 1 1 1 1 1 1 1 1 1 1 1 0 1 0 1 1 1 @17 NEW_SIMPLE_ATTRIB 2 @11 ENTITY_NAME @9 coolant@G 0 0 #
face $-1 -1 -1 $-1 $72 $73 $17 $-1 $74 reversed single T 0 8.4779999999999998 0 0.5 9.3439999999999994 1 F #
loop $-1 -1 -1 $-1 $-1 $75 $33 T -1.7763568394002505e-15 4.2389999999999999 1 7.843 9.3439999999999994 1 unknown #
plane-surface $-1 -1 -1 $-1 3.9214999999999995 6.7914999999999992 1 0 0 1 1 0 0 forward_v I I I I #
coedge $-1 -1 -1 $-1 $76 $77 $78 $79 forward $34 $-1 #
simple-snl-attrib $-1 -1 $-1 $36 $27 1 1 1 1 1 1 1 1 1 1 1 1 0 1 0 1 1 1 @17 NEW_SIMPLE_ATTRIB 1 @9 ENTITY_ID 0 3 2 -2147483648 -1 #
simple-snl-attrib $-1 -1 $-1 $-1 $37 1 1 1 1 1 1 1 1 1 1 1 1 0 1 0 1 1 1 @17 NEW_SIMPLE_ATTRIB 2 @11 ENTITY_NAME @9 coolant@D 0 0 #
face $-1 -1 -1 $-1 $80 $81 $19 $-1 $82 reversed single T 7.343 -4.2389999999999999 0 7.343 4.2389999999999999 1 F #
loop $-1 -1 -1 $-1 $-1 $83 $37 T 7.343 -4.2389999999999999 1 8.343 4.2389999999999999 1 unknown #
plane-surface $-1 -1 -1 $-1 7.8430000000000017 0 1 0 0 1 1 0 0 forward_v I I I I #
coedge $-1 -1 -1 $-1 $84 $85 $86 $87 reversed $38 $-1 #
simple-snl-attrib $-1 -1 $-1 $40 $29 1 1 1 1 1 1 1 1 1 1 1 1 0 1 0 1 1 1 @17 NEW_SIMPLE_ATTRIB 1 @9 ENTITY_ID 0 3 3 -2147483648 -1 #
simple-snl-attrib $-1 -1 $-1 $-1 $41 1 1 1 1 1 1 1 1 1 1 1 1 0 1 0 1 1 1 @17 NEW_SIMPLE_ATTRIB 2 @11 ENTITY_NAME @9 coolant@E 0 0 #
face $-1 -1 -1 $-1 $88 $89 $21 $-1 $90 reversed single T 8.343 4.2389999999999999 0 15.685000000000002 8.4780000000000015 1 F #
loop $-1 -1 -1 $-1 $-1 $91 $41 T 7.843 4.2389999999999999 1 15.685000000000002 9.3439999999999994 1 unknown #
plane-surface $-1 -1 -1 $-1 11.763999999999998 6.7914999999999992 1 0 0 1 1 0 0 forward_v I I I I #
coedge $-1 -1 -1 $-1 $92 $93 $94 $95 reversed $42 $-1 #
simple-snl-attrib $-1 -1 $-1 $44 $31 1 1 1 1 1 1 1 1 1 1 1 1 0 1 0 1 1 1 @17 NEW_SIMPLE_ATTRIB 1 @9 ENTITY_ID 0 3 4 -2147483648 -1 #
simple-snl-attrib $-1 -1 $-1 $-1 $45 1 1 1 1 1 1 1 1 1 1 1 1 0 1 0 1 1 1 @17 NEW_SIMPLE_ATTRIB 2 @11 ENTITY_NAME @9 coolant@F 0 0 #
face $-1 -1 -1 $-1 $96 $97 $23 $-1 $98 reversed single T 7.843 4.2389999999999999 0 8.343 5.1050000000000004 1 F #
loop $-1 -1 -1 $-1 $-1 $99 $45 T 7.343 4.2389999999999999 1 8.343 5.1050000000000004 1 unknown #
plane-surface $-1 -1 -1 $-1 7.843 4.5276645497234425 1 0 0 1 1 0 0 forward_v I I I I #
coedge $-1 -1 -1 $-1 $100 $101 $102 $103 reversed $46 $-1 #
face $-1 -1 -1 $-1 $104 $105 $17 $-1 $106 reversed single T 0.5 5.1050000000000004 0 7.843 9.3439999999999994 1 F #
loop $-1 -1 -1 $-1 $-1 $107 $50 T 0 8.4779999999999998 0 0.5 9.3439999999999994 1 unknown #
plane-surface $-1 -1 -1 $-1 0.24999999999999978 8.9109999999999996 0 0.86601905262873902 -0.50001100036301349 0 0 0 -1 forward_v I I I I #
coedge $-1 -1 -1 $-1 $108 $109 $107 $110 reversed $51 $-1 #
coedge $-1 -1 -1 $-1 $111 $53 $112 $113 forward $34 $-1 #
coedge $-1 -1 -1 $-1 $53 $111 $114 $115 forward $34 $-1 #
coedge $-1 -1 -1 $-1 $116 $117 $53 $79 reversed $73 $-1 #
edge $118 -1 -1 $-1 $119 0 $120 0.99997799975799428 $53 $121 forward @7 unknown T 0 8.4779999999999998 0 0.5 9.3439999999999994 0 #
face $-1 -1 -1 $-1 $122 $123 $19 $-1 $124 reversed single T 7.343 -4.2389999999999999 0 8.343 -4.2389999999999999 1 F #
loop $-1 -1 -1 $-1 $-1 $86 $56 T 7.343 -4.2389999999999999 0 7.343 4.2389999999999999 1 unknown #
plane-surface $-1 -1 -1 $-1 7.343 0 0 1 0 -0 -0 0 -1 forward_v I I I I #
coedge $-1 -1 -1 $-1 $125 $126 $127 $128 forward $57 $-1 #
coedge $-1 -1 -1 $-1 $129 $59 $130 $131 reversed $38 $-1 #
coedge $-1 -1 -1 $-1 $59 $129 $132 $133 reversed $38 $-1 #
coedge $-1 -1 -1 $-1 $134 $135 $59 $87 forward $81 $-1 #
edge $136 -1 -1 $-1 $137 0 $138 8.4779999999999998 $59 $139 forward @7 unknown T 7.343 -4.2389999999999999 0 7.343 4.2389999999999999 0 #
face $-1 -1 -1 $-1 $140 $141 $21 $-1 $142 reversed single T 15.185 8.4779999999999998 0 15.685 9.3439999999999994 1 F #
loop $-1 -1 -1 $-1 $-1 $94 $62 T 8.343 4.2389999999999999 0 15.685000000000002 8.4780000000000015 1 unknown #
plane-surface $-1 -1 -1 $-1 12.014000000000001 6.3585000000000003 0 -0.50000834438442587 0.86602058609824373 0 0 -0 1 forward_v I I I I #
coedge $-1 -1 -1 $-1 $143 $144 $145 $146 forward $63 $-1 #
coedge $-1 -1 -1 $-1 $147 $65 $148 $149 reversed $42 $-1 #
coedge $-1 -1 -1 $-1 $65 $147 $150 $151 reversed $42 $-1 #
coedge $-1 -1 -1 $-1 $152 $153 $65 $95 forward $89 $-1 #
edge $154 -1 -1 $-1 $155 0 $156 8.4778585149788874 $65 $157 forward @7 unknown T 8.343 4.2389999999999999 0 15.685000000000002 8.4780000000000015 0 #
face $-1 -1 -1 $-1 $158 $159 $23 $-1 $160 reversed single T 7.343 4.2389999999999999 0 7.843 5.1050000000000004 1 F #
loop $-1 -1 -1 $-1 $-1 $102 $68 T 7.843 4.2389999999999999 0 8.343 5.1050000000000004 1 unknown #
plane-surface $-1 -1 -1 $-1 8.093 4.6719999999999997 0 -0.86601905262873924 -0.50001100036301305 0 0 -0 1 forward_v I I I I #
coedge $-1 -1 -1 $-1 $161 $162 $163 $164 forward $69 $-1 #
coedge $-1 -1 -1 $-1 $101 $71 $165 $166 reversed $46 $-1 #
coedge $-1 -1 -1 $-1 $71 $100 $167 $168 reversed $46 $-1 #
coedge $-1 -1 -1 $-1 $169 $170 $71 $103 forward $97 $-1 #
edge $-1 -1 -1 $-1 $171 0 $172 0.99997799975799606 $71 $173 forward @7 unknown T 7.843 4.2389999999999999 0 8.343 5.1050000000000004 0 #
face $-1 -1 -1 $-1 $174 $175 $17 $-1 $176 reversed single T 7.343 4.2389999999999999 0 7.843 5.1050000000000004 1 F #
loop $-1 -1 -1 $-1 $-1 $177 $72 T 0.5 5.1050000000000004 0 7.843 9.3439999999999994 1 unknown #
plane-surface $-1 -1 -1 $-1 4.1715 7.2244999999999999 0 -0.49995727244681898 -0.86605007114342836 0 0 -0 -1 forward_v I I I I #
coedge $-1 -1 -1 $-1 $117 $116 $75 $110 forward $73 $-1 #
coedge $-1 -1 -1 $-1 $178 $75 $179 $180 reversed $51 $-1 #
coedge $-1 -1 -1 $-1 $75 $178 $177 $181 reversed $51 $-1 #
edge $-1 -1 -1 $-1 $182 -0 $183 0.99997799975799428 $75 $184 forward @7 unknown T 0 8.4779999999999998 1 0.5 9.3439999999999994 1 #
coedge $-1 -1 -1 $-1 $77 $76 $185 $186 forward $34 $-1 #
coedge $-1 -1 -1 $-1 $187 $188 $76 $113 reversed $105 $-1 #
edge $189 -1 -1 $-1 $120 0 $190 8.4787245503082591 $76 $191 forward @7 unknown T 0.5 5.1050000000000004 0 7.843 9.3439999999999994 0 #
coedge $-1 -1 -1 $-1 $192 $193 $77 $115 reversed $194 $-1 #
edge $195 -1 -1 $-1 $196 0 $119 8.4787245503082609 $77 $197 forward @7 unknown T -1.7763568394002505e-15 4.2389999999999999 0 7.343 8.4780000000000015 0 #
coedge $-1 -1 -1 $-1 $107 $78 $193 $198 reversed $73 $-1 #
coedge $-1 -1 -1 $-1 $78 $107 $187 $199 forward $73 $-1 #
simple-snl-attrib $-1 -1 $-1 $-1 $79 1 1 1 1 1 1 1 1 1 1 1 1 0 1 0 1 1 1 @17 NEW_SIMPLE_ATTRIB 1 @9 ENTITY_ID 0 3 1 -2147483648 -1 #
vertex $200 -1 -1 $-1 $79 $201 #
vertex $202 -1 -1 $-1 $79 $203 #
straight-curve $-1 -1 -1 $-1 0 8.4779999999999998 0 0.50001100036301305 0.86601905262873824 0 F 0 F 0.99997799975799428 #
face $-1 -1 -1 $-1 $204 $205 $19 $-1 $206 reversed single T 8.343 -4.2389999999999999 0 8.343 4.2389999999999999 1 F #
loop $-1 -1 -1 $-1 $-1 $132 $80 T 7.343 -4.2389999999999999 0 8.343 -4.2389999999999999 1 unknown #
plane-surface $-1 -1 -1 $-1 7.843 -4.2389999999999999 0 0 1 0 0 0 1 forward_v I I I I #
coedge $-1 -1 -1 $-1 $207 $83 $208 $209 forward $57 $-1 #
coedge $-1 -1 -1 $-1 $83 $207 $210 $211 forward $57 $-1 #
coedge $-1 -1 -1 $-1 $135 $134 $83 $128 reversed $81 $-1 #
edge $-1 -1 -1 $-1 $212 -0 $213 8.4779999999999998 $83 $214 forward @7 unknown T 7.343 -4.2389999999999999 1 7.343 4.2389999999999999 1 #
coedge $-1 -1 -1 $-1 $85 $84 $215 $216 reversed $38 $-1 #
coedge $-1 -1 -1 $-1 $217 $218 $84 $131 forward $219 $-1 #
edge $220 -1 -1 $-1 $221 0 $137 1 $84 $222 forward @7 unknown T 7.343 4.2389999999999999 0 8.343 4.2389999999999999 0 #
coedge $-1 -1 -1 $-1 $223 $224 $85 $133 forward $123 $-1 #
edge $225 -1 -1 $-1 $138 0 $226 1 $85 $227 forward @7 unknown T 7.343 -4.2389999999999999 0 8.343 -4.2389999999999999 0 #
coedge $-1 -1 -1 $-1 $127 $86 $224 $228 forward $81 $-1 #
coedge $-1 -1 -1 $-1 $86 $127 $217 $229 reversed $81 $-1 #
simple-snl-attrib $-1 -1 $-1 $-1 $87 1 1 1 1 1 1 1 1 1 1 1 1 0 1 0 1 1 1 @17 NEW_SIMPLE_ATTRIB 1 @9 ENTITY_ID 0 3 5 -2147483648 -1 #
vertex $-1 -1 -1 $-1 $87 $230 #
vertex $231 -1 -1 $-1 $87 $232 #
straight-curve $-1 -1 -1 $-1 7.343 4.2389999999999999 0 0 -1 0 I I #
face $-1 -1 -1 $-1 $233 $234 $21 $-1 $235 reversed single T 7.843 5.1050000000000004 0 15.185 9.3439999999999994 1 F #
loop $-1 -1 -1 $-1 $-1 $150 $88 T 15.185 8.4779999999999998 0 15.685 9.3439999999999994 1 unknown #
plane-surface $-1 -1 -1 $-1 15.435 8.9109999999999996 0 -0.86601905262873902 -0.50001100036301349 0 0 -0 1 forward_v I I I I #
coedge $-1 -1 -1 $-1 $236 $91 $237 $238 forward $63 $-1 #
coedge $-1 -1 -1 $-1 $91 $236 $239 $240 forward $63 $-1 #
coedge $-1 -1 -1 $-1 $153 $152 $91 $146 reversed $89 $-1 #
edge $-1 -1 -1 $-1 $241 -0 $242 8.4778585149788874 $91 $243 forward @7 unknown T 8.343 4.2389999999999999 1 15.685000000000002 8.4780000000000015 1 #
coedge $-1 -1 -1 $-1 $93 $92 $244 $245 reversed $42 $-1 #
coedge $-1 -1 -1 $-1 $246 $247 $92 $149 forward $248 $-1 #
edge $249 -1 -1 $-1 $250 0 $155 0.99997799975799606 $92 $251 forward @7 unknown T 7.843 4.2389999999999999 0 8.343 5.1050000000000004 0 #
coedge $-1 -1 -1 $-1 $252 $253 $93 $151 forward $141 $-1 #
edge $254 -1 -1 $-1 $156 0 $255 0.99997799975799539 $93 $256 forward @7 unknown T 15.185 8.4779999999999998 0 15.685 9.3439999999999994 0 #
coedge $-1 -1 -1 $-1 $145 $94 $253 $257 forward $89 $-1 #
coedge $-1 -1 -1 $-1 $94 $145 $246 $258 reversed $89 $-1 #
simple-snl-attrib $-1 -1 $-1 $-1 $95 1 1 1 1 1 1 1 1 1 1 1 1 0 1 0 1 1 1 @17 NEW_SIMPLE_ATTRIB 1 @9 ENTITY_ID 0 3 9 -2147483648 -1 #
vertex $-1 -1 -1 $-1 $95 $259 #
vertex $260 -1 -1 $-1 $95 $261 #
straight-curve $-1 -1 -1 $-1 8.343 4.2389999999999999 0 0.86602058609824373 0.50000834438442587 0 I I #
face $-1 -1 -1 $-1 $-1 $262 $23 $-1 $263 reversed single T 7.343 4.2389999999999999 0 8.343 4.2389999999999999 1 F #
loop $-1 -1 -1 $-1 $-1 $167 $96 T 7.343 4.2389999999999999 0 7.843 5.1050000000000004 1 unknown #
plane-surface $-1 -1 -1 $-1 7.593 4.6720000000000006 0 0.86601905262873924 -0.50001100036301305 0 0 0 -1 forward_v I I I I #
coedge $-1 -1 -1 $-1 $162 $99 $264 $265 forward $69 $-1 #
coedge $-1 -1 -1 $-1 $99 $161 $266 $267 forward $69 $-1 #
coedge $-1 -1 -1 $-1 $170 $169 $99 $164 reversed $97 $-1 #
edge $-1 -1 -1 $-1 $268 -0 $269 0.99997799975799517 $99 $270 forward @7 unknown T 7.843 4.2389999999999999 1 8.343 5.1050000000000004 1 #
coedge $-1 -1 -1 $-1 $271 $272 $100 $166 forward $262 $-1 #
edge $-1 -1 -1 $-1 $273 0 $171 1 $100 $274 forward @7 unknown T 7.343 4.2389999999999999 0 8.343 4.2389999999999999 0 #
coedge $-1 -1 -1 $-1 $275 $276 $101 $168 forward $159 $-1 #
edge $-1 -1 -1 $-1 $172 0 $273 0.99997799975799606 $101 $277 forward @7 unknown T 7.343 4.2389999999999999 0 7.843 5.1050000000000004 0 #
coedge $-1 -1 -1 $-1 $163 $102 $276 $278 forward $97 $-1 #
coedge $-1 -1 -1 $-1 $102 $163 $271 $279 reversed $97 $-1 #
vertex $-1 -1 -1 $-1 $103 $280 #
vertex $-1 -1 -1 $-1 $103 $281 #
straight-curve $-1 -1 -1 $-1 8.343 4.2389999999999999 0 -0.5000110003630126 0.86601905262873846 0 I I #
face $-1 -1 -1 $-1 $-1 $194 $17 $-1 $282 reversed single T -1.7763568394002505e-15 4.2389999999999999 0 7.343 8.4780000000000015 1 F #
loop $-1 -1 -1 $-1 $-1 $283 $104 T 7.343 4.2389999999999999 0 7.843 5.1050000000000004 1 unknown #
plane-surface $-1 -1 -1 $-1 7.593 4.6720000000000006 0 -0.86601905262873924 0.50001100036301305 0 0 -0 1 forward_v I I I I #
coedge $-1 -1 -1 $-1 $188 $187 $109 $181 forward $105 $-1 #
coedge $-1 -1 -1 $-1 $109 $108 $283 $284 reversed $51 $-1 #
coedge $-1 -1 -1 $-1 $193 $192 $108 $180 forward $194 $-1 #
edge $-1 -1 -1 $-1 $285 -0 $182 8.4787245503082609 $108 $286 forward @7 unknown T -1.7763568394002505e-15 4.2389999999999999 1 7.343 8.4780000000000015 1 #
edge $-1 -1 -1 $-1 $183 -0 $287 8.4787245503082591 $109 $288 forward @7 unknown T 0.5 5.1050000000000004 1 7.843 9.3439999999999994 1 #
vertex $-1 -1 -1 $-1 $110 $289 #
vertex $-1 -1 -1 $-1 $110 $290 #
straight-curve $-1 -1 -1 $-1 0 8.4779999999999998 1 0.50001100036301305 0.86601905262873824 0 F -1.9999579994719934 F 2.1546881611159567 #
coedge $-1 -1 -1 $-1 $291 $292 $111 $186 reversed $175 $-1 #
edge $293 -1 -1 $-1 $190 0 $196 0.99997799975799517 $111 $294 forward @7 unknown T 7.343 4.2389999999999999 0 7.843 5.1050000000000004 0 #
coedge $-1 -1 -1 $-1 $177 $112 $117 $199 reversed $105 $-1 #
coedge $-1 -1 -1 $-1 $112 $177 $291 $295 forward $105 $-1 #
simple-snl-attrib $-1 -1 $-1 $-1 $113 1 1 1 1 1 1 1 1 1 1 1 1 0 1 0 1 1 1 @17 NEW_SIMPLE_ATTRIB 1 @9 ENTITY_ID 0 3 2 -2147483648 -1 #
vertex $296 -1 -1 $-1 $113 $297 #
straight-curve $-1 -1 -1 $-1 0.5 9.3439999999999994 0 0.86605007114342836 -0.49995727244681898 0 F 0 F 8.4787245503082591 #
coedge $-1 -1 -1 $-1 $179 $114 $292 $298 reversed $194 $-1 #
coedge $-1 -1 -1 $-1 $114 $179 $116 $198 forward $194 $-1 #
loop $-1 -1 -1 $-1 $-1 $179 $174 T -1.7763568394002505e-15 4.2389999999999999 0 7.343 8.4780000000000015 1 unknown #
simple-snl-attrib $-1 -1 $-1 $-1 $115 1 1 1 1 1 1 1 1 1 1 1 1 0 1 0 1 1 1 @17 NEW_SIMPLE_ATTRIB 1 @9 ENTITY_ID 0 3 4 -2147483648 -1 #
vertex $299 -1 -1 $-1 $186 $300 #
straight-curve $-1 -1 -1 $-1 7.343 4.2389999999999999 0 -0.86605007114342836 0.49995727244681909 0 F 0 F 8.4787245503082609 #
edge $-1 -1 -1 $-1 $182 -1 $119 -0 $116 $301 forward @7 unknown T 0 8.4779999999999998 0 0 8.4779999999999998 1 #
edge $-1 -1 -1 $-1 $183 -1 $120 -0 $117 $302 forward @7 unknown T 0.5 9.3439999999999994 0 0.5 9.3439999999999994 1 #
simple-snl-attrib $-1 -1 $-1 $-1 $119 1 1 1 1 1 1 1 1 1 1 1 1 0 1 0 1 1 1 @17 NEW_SIMPLE_ATTRIB 1 @9 ENTITY_ID 0 3 1 -2147483648 -1 #
point $-1 -1 -1 $-1 0 8.4779999999999998 0 #
simple-snl-attrib $-1 -1 $-1 $-1 $120 1 1 1 1 1 1 1 1 1 1 1 1 0 1 0 1 1 1 @17 NEW_SIMPLE_ATTRIB 1 @9 ENTITY_ID 0 3 2 -2147483648 -1 #
point $-1 -1 -1 $-1 0.5 9.3439999999999994 0 #
face $-1 -1 -1 $-1 $-1 $219 $19 $-1 $303 reversed single T 7.343 4.2389999999999999 0 8.343 4.2389999999999999 1 F #
loop $-1 -1 -1 $-1 $-1 $215 $122 T 8.343 -4.2389999999999999 0 8.343 4.2389999999999999 1 unknown #
plane-surface $-1 -1 -1 $-1 8.343 0 0 -1 0 0 0 -0 1 forward_v I I I I #
coedge $-1 -1 -1 $-1 $126 $125 $304 $305 forward $57 $-1 #
coedge $-1 -1 -1 $-1 $224 $223 $125 $209 reversed $123 $-1 #
edge $-1 -1 -1 $-1 $213 -0 $306 1 $125 $307 forward @7 unknown T 7.343 -4.2389999999999999 1 8.343 -4.2389999999999999 1 #
coedge $-1 -1 -1 $-1 $218 $217 $126 $211 reversed $219 $-1 #
edge $-1 -1 -1 $-1 $308 -0 $212 1 $126 $309 forward @7 unknown T 7.343 4.2389999999999999 1 8.343 4.2389999999999999 1 #
vertex $-1 -1 -1 $-1 $128 $310 #
vertex $-1 -1 -1 $-1 $128 $311 #
straight-curve $-1 -1 -1 $-1 7.343 4.2389999999999999 1 0 -1 0 F -1.0000010000000001 F 9.478000999999999 #
coedge $-1 -1 -1 $-1 $312 $313 $129 $216 forward $205 $-1 #
edge $314 -1 -1 $-1 $226 0 $221 8.4779999999999998 $129 $315 forward @7 unknown T 8.343 -4.2389999999999999 0 8.343 4.2389999999999999 0 #
coedge $-1 -1 -1 $-1 $210 $130 $135 $229 forward $219 $-1 #
coedge $-1 -1 -1 $-1 $130 $210 $312 $316 reversed $219 $-1 #
loop $-1 -1 -1 $-1 $-1 $130 $204 T 7.343 4.2389999999999999 0 8.343 4.2389999999999999 1 unknown #
simple-snl-attrib $-1 -1 $-1 $-1 $131 1 1 1 1 1 1 1 1 1 1 1 1 0 1 0 1 1 1 @17 NEW_SIMPLE_ATTRIB 1 @9 ENTITY_ID 0 3 8 2037134724 0 #
vertex $317 -1 -1 $-1 $216 $318 #
straight-curve $-1 -1 -1 $-1 8.343 4.2389999999999999 0 -1 0 0 I I #
coedge $-1 -1 -1 $-1 $208 $132 $313 $319 forward $123 $-1 #
coedge $-1 -1 -1 $-1 $132 $208 $134 $228 reversed $123 $-1 #
simple-snl-attrib $-1 -1 $-1 $-1 $133 1 1 1 1 1 1 1 1 1 1 1 1 0 1 0 1 1 1 @17 NEW_SIMPLE_ATTRIB 1 @9 ENTITY_ID 0 3 6 -2147483648 -1 #
vertex $320 -1 -1 $-1 $133 $321 #
straight-curve $-1 -1 -1 $-1 7.343 -4.2389999999999999 0 1 0 0 I I #
edge $-1 -1 -1 $-1 $138 0 $213 1 $134 $322 forward @7 unknown T 7.343 -4.2389999999999999 0 7.343 -4.2389999999999999 1 #
edge $-1 -1 -1 $-1 $137 0 $212 1 $135 $323 forward @7 unknown T 7.343 4.2389999999999999 0 7.343 4.2389999999999999 1 #
point $-1 -1 -1 $-1 7.343 4.2389999999999999 0 #
simple-snl-attrib $-1 -1 $-1 $-1 $138 1 1 1 1 1 1 1 1 1 1 1 1 0 1 0 1 1 1 @17 NEW_SIMPLE_ATTRIB 1 @9 ENTITY_ID 0 3 6 -2147483648 -1 #
point $-1 -1 -1 $-1 7.343 -4.2389999999999999 0 #
face $-1 -1 -1 $-1 $-1 $248 $21 $-1 $324 reversed single T 7.843 4.2389999999999999 0 8.343 5.1050000000000004 1 F #
loop $-1 -1 -1 $-1 $-1 $244 $140 T 7.843 5.1050000000000004 0 15.185 9.3439999999999994 1 unknown #
plane-surface $-1 -1 -1 $-1 11.513999999999999 7.2244999999999999 0 0.50000834438442576 -0.86602058609824373 0 0 0 -1 forward_v I I I I #
coedge $-1 -1 -1 $-1 $144 $143 $325 $326 forward $63 $-1 #
coedge $-1 -1 -1 $-1 $253 $252 $143 $238 reversed $141 $-1 #
edge $-1 -1 -1 $-1 $242 -0 $327 0.99997799975799428 $143 $328 forward @7 unknown T 15.185 8.4779999999999998 1 15.685 9.3439999999999994 1 #
coedge $-1 -1 -1 $-1 $247 $246 $144 $240 reversed $248 $-1 #
edge $-1 -1 -1 $-1 $329 -0 $241 0.99997799975799517 $144 $330 forward @7 unknown T 7.843 4.2389999999999999 1 8.343 5.1050000000000004 1 #
vertex $-1 -1 -1 $-1 $146 $331 #
vertex $-1 -1 -1 $-1 $146 $332 #
straight-curve $-1 -1 -1 $-1 8.343 4.2389999999999999 1 0.86602058609824373 0.50000834438442587 0 F -1.732061597701831 F 9.6325666316824297 #
coedge $-1 -1 -1 $-1 $333 $334 $147 $245 forward $234 $-1 #
edge $335 -1 -1 $-1 $255 0 $250 8.4778585149788857 $147 $336 forward @7 unknown T 7.843 5.1050000000000004 0 15.185 9.3439999999999994 0 #
coedge $-1 -1 -1 $-1 $239 $148 $153 $258 forward $248 $-1 #
coedge $-1 -1 -1 $-1 $148 $239 $333 $337 reversed $248 $-1 #
loop $-1 -1 -1 $-1 $-1 $148 $233 T 7.843 4.2389999999999999 0 8.343 5.1050000000000004 1 unknown #
simple-snl-attrib $-1 -1 $-1 $-1 $149 1 1 1 1 1 1 1 1 1 1 1 1 0 1 0 1 1 1 @17 NEW_SIMPLE_ATTRIB 1 @9 ENTITY_ID 0 3 12 1595575473 0 #
vertex $-1 -1 -1 $-1 $245 $338 #
straight-curve $-1 -1 -1 $-1 7.843 5.1050000000000004 0 0.5000110003630126 -0.86601905262873846 0 I I #
coedge $-1 -1 -1 $-1 $237 $150 $334 $339 forward $141 $-1 #
coedge $-1 -1 -1 $-1 $150 $237 $152 $257 reversed $141 $-1 #
simple-snl-attrib $-1 -1 $-1 $-1 $151 1 1 1 1 1 1 1 1 1 1 1 1 0 1 0 1 1 1 @17 NEW_SIMPLE_ATTRIB 1 @9 ENTITY_ID 0 3 10 -2147483648 -1 #
vertex $340 -1 -1 $-1 $151 $341 #
straight-curve $-1 -1 -1 $-1 15.685 8.4779999999999998 0 -0.50001100036301305 0.86601905262873824 0 I I #
edge $-1 -1 -1 $-1 $156 0 $242 1 $152 $342 forward @7 unknown T 15.685 8.4779999999999998 0 15.685 8.4779999999999998 1 #
edge $-1 -1 -1 $-1 $155 0 $241 1 $153 $343 forward @7 unknown T 8.343 4.2389999999999999 0 8.343 4.2389999999999999 1 #
point $-1 -1 -1 $-1 8.343 4.2389999999999999 0 #
simple-snl-attrib $-1 -1 $-1 $-1 $156 1 1 1 1 1 1 1 1 1 1 1 1 0 1 0 1 1 1 @17 NEW_SIMPLE_ATTRIB 1 @9 ENTITY_ID 0 3 10 -2147483648 -1 #
point $-1 -1 -1 $-1 15.685 8.4779999999999998 0 #
loop $-1 -1 -1 $-1 $-1 $165 $158 T 7.343 4.2389999999999999 0 8.343 4.2389999999999999 1 unknown #
plane-surface $-1 -1 -1 $-1 7.843 4.2389999999999999 0 0 1 0 0 0 1 forward_v I I I I #
coedge $-1 -1 -1 $-1 $276 $275 $161 $265 reversed $159 $-1 #
edge $-1 -1 -1 $-1 $269 -0 $344 0.99997799975799517 $161 $345 forward @7 unknown T 7.343 4.2389999999999999 1 7.843 5.1050000000000004 1 #
coedge $-1 -1 -1 $-1 $272 $271 $162 $267 reversed $262 $-1 #
edge $-1 -1 -1 $-1 $344 -0 $268 1 $162 $346 forward @7 unknown T 7.343 4.2389999999999999 1 8.343 4.2389999999999999 1 #
vertex $-1 -1 -1 $-1 $164 $347 #
vertex $-1 -1 -1 $-1 $164 $348 #
straight-curve $-1 -1 -1 $-1 8.343 4.2389999999999999 1 -0.5000110003630126 0.86601905262873846 0 F -1.1547101613579622 F 2.1546881611159581 #
coedge $-1 -1 -1 $-1 $266 $165 $170 $279 forward $262 $-1 #
coedge $-1 -1 -1 $-1 $165 $266 $275 $349 reversed $262 $-1 #
vertex $-1 -1 -1 $-1 $168 $350 #
straight-curve $-1 -1 -1 $-1 7.343 4.2389999999999999 0 1 0 0 I I #
coedge $-1 -1 -1 $-1 $264 $167 $272 $349 forward $159 $-1 #
coedge $-1 -1 -1 $-1 $167 $264 $169 $278 reversed $159 $-1 #
straight-curve $-1 -1 -1 $-1 7.843 5.1050000000000004 0 -0.5000110003630126 -0.86601905262873846 0 I I #
edge $-1 -1 -1 $-1 $172 0 $269 1 $169 $351 forward @7 unknown T 7.843 5.1050000000000004 0 7.843 5.1050000000000004 1 #
edge $-1 -1 -1 $-1 $171 0 $268 1 $170 $352 forward @7 unknown T 8.343 4.2389999999999999 0 8.343 4.2389999999999999 1 #
point $-1 -1 -1 $-1 8.343 4.2389999999999999 0 #
point $-1 -1 -1 $-1 7.843 5.1050000000000004 0 #
plane-surface $-1 -1 -1 $-1 3.6714999999999991 6.3585000000000003 0 0.49995727244681909 0.86605007114342836 -0 -0 0 1 forward_v I I I I #
coedge $-1 -1 -1 $-1 $292 $291 $178 $284 forward $175 $-1 #
edge $-1 -1 -1 $-1 $287 -0 $285 0.99997799975799517 $178 $353 forward @7 unknown T 7.343 4.2389999999999999 1 7.843 5.1050000000000004 1 #
vertex $-1 -1 -1 $-1 $284 $354 #
straight-curve $-1 -1 -1 $-1 7.343 4.2389999999999999 1 -0.86605007114342836 0.49995727244681909 0 F -1.7320026289237276 F 9.6333933544799617 #
vertex $-1 -1 -1 $-1 $181 $355 #
straight-curve $-1 -1 -1 $-1 0.5 9.3439999999999994 1 0.86605007114342836 -0.49995727244681898 0 F -1.7320026289237305 F 9.6333933544799599 #
point $-1 -1 -1 $-1 0 8.4779999999999998 1 #
point $-1 -1 -1 $-1 0.5 9.3439999999999994 1 #
coedge $-1 -1 -1 $-1 $283 $185 $188 $295 reversed $175 $-1 #
coedge $-1 -1 -1 $-1 $185 $283 $192 $298 forward $175 $-1 #
simple-snl-attrib $-1 -1 $-1 $-1 $186 1 1 1 1 1 1 1 1 1 1 1 1 0 1 0 1 1 1 @17 NEW_SIMPLE_ATTRIB 1 @9 ENTITY_ID 0 3 3 1595575473 0 #
straight-curve $-1 -1 -1 $-1 7.843 5.1050000000000004 0 -0.5000110003630126 -0.86601905262873846 0 F 0 F 0.99997799975799517 #
edge $-1 -1 -1 $-1 $287 -1 $190 -0 $188 $356 forward @7 unknown T 7.843 5.1050000000000004 0 7.843 5.1050000000000004 1 #
simple-snl-attrib $-1 -1 $-1 $-1 $190 1 1 1 1 1 1 1 1 1 1 1 1 0 1 0 1 1 1 @17 NEW_SIMPLE_ATTRIB 1 @9 ENTITY_ID 0 3 3 -2147483648 -1 #
point $-1 -1 -1 $-1 7.843 5.1050000000000004 0 #
edge $-1 -1 -1 $-1 $285 -1 $196 -0 $292 $357 forward @7 unknown T 7.343 4.2389999999999999 0 7.343 4.2389999999999999 1 #
simple-snl-attrib $-1 -1 $-1 $-1 $196 1 1 1 1 1 1 1 1 1 1 1 1 0 1 0 1 1 1 @17 NEW_SIMPLE_ATTRIB 1 @9 ENTITY_ID 0 3 4 -2147483648 -1 #
point $-1 -1 -1 $-1 7.343 4.2389999999999999 0 #
straight-curve $-1 -1 -1 $-1 0 8.4779999999999998 0 -0 -0 -1 F -1 F 0 #
straight-curve $-1 -1 -1 $-1 0.5 9.3439999999999994 0 -0 -0 -1 F -1 F 0 #
plane-surface $-1 -1 -1 $-1 7.843 4.2389999999999999 0 0 -1 0 0 0 -1 forward_v I I I I #
coedge $-1 -1 -1 $-1 $313 $312 $207 $305 reversed $205 $-1 #
edge $-1 -1 -1 $-1 $306 -0 $308 8.4779999999999998 $207 $358 forward @7 unknown T 8.343 -4.2389999999999999 1 8.343 4.2389999999999999 1 #
vertex $-1 -1 -1 $-1 $209 $359 #
straight-curve $-1 -1 -1 $-1 7.343 -4.2389999999999999 1 1 0 0 F -1.0000010000000001 F 2.0000009999999993 #
vertex $-1 -1 -1 $-1 $305 $360 #
straight-curve $-1 -1 -1 $-1 8.343 4.2389999999999999 1 -1 0 0 F -1.0000009999999993 F 2.0000010000000001 #
point $-1 -1 -1 $-1 7.343 4.2389999999999999 1 #
point $-1 -1 -1 $-1 7.343 -4.2389999999999999 1 #
coedge $-1 -1 -1 $-1 $304 $215 $218 $316 forward $205 $-1 #
coedge $-1 -1 -1 $-1 $215 $304 $223 $319 reversed $205 $-1 #
simple-snl-attrib $-1 -1 $-1 $-1 $216 1 1 1 1 1 1 1 1 1 1 1 1 0 1 0 1 1 1 @17 NEW_SIMPLE_ATTRIB 1 @9 ENTITY_ID 0 3 7 -2147483648 -1 #
straight-curve $-1 -1 -1 $-1 8.343 -4.2389999999999999 0 0 1 0 I I #
edge $-1 -1 -1 $-1 $221 0 $308 1 $312 $361 forward @7 unknown T 8.343 4.2389999999999999 0 8.343 4.2389999999999999 1 #
simple-snl-attrib $-1 -1 $-1 $-1 $221 1 1 1 1 1 1 1 1 1 1 1 1 0 1 0 1 1 1 @17 NEW_SIMPLE_ATTRIB 1 @9 ENTITY_ID 0 3 8 -2147483648 -1 #
point $-1 -1 -1 $-1 8.343 4.2389999999999999 0 #
edge $-1 -1 -1 $-1 $226 0 $306 1 $223 $362 forward @7 unknown T 8.343 -4.2389999999999999 0 8.343 -4.2389999999999999 1 #
simple-snl-attrib $-1 -1 $-1 $-1 $226 1 1 1 1 1 1 1 1 1 1 1 1 0 1 0 1 1 1 @17 NEW_SIMPLE_ATTRIB 1 @9 ENTITY_ID 0 3 7 -2147483648 -1 #
point $-1 -1 -1 $-1 8.343 -4.2389999999999999 0 #
straight-curve $-1 -1 -1 $-1 7.343 -4.2389999999999999 0 0 0 1 F 0 F 1 #
straight-curve $-1 -1 -1 $-1 7.343 4.2389999999999999 0 0 0 1 F 0 F 1 #
plane-surface $-1 -1 -1 $-1 8.093 4.6720000000000006 0 0.86601905262873924 0.50001100036301305 -0 -0 0 -1 forward_v I I I I #
coedge $-1 -1 -1 $-1 $334 $333 $236 $326 reversed $234 $-1 #
edge $-1 -1 -1 $-1 $327 -0 $329 8.4778585149788857 $236 $363 forward @7 unknown T 7.843 5.1050000000000004 1 15.185 9.3439999999999994 1 #
vertex $-1 -1 -1 $-1 $238 $364 #
straight-curve $-1 -1 -1 $-1 15.685 8.4779999999999998 1 -0.50001100036301305 0.86601905262873824 0 F -1.9999579994719956 F 2.1546881611159567 #
vertex $-1 -1 -1 $-1 $326 $365 #
straight-curve $-1 -1 -1 $-1 7.843 5.1050000000000004 1 0.5000110003630126 -0.86601905262873846 0 F -1.999957999471992 F 2.1546881611159581 #
point $-1 -1 -1 $-1 8.343 4.2389999999999999 1 #
point $-1 -1 -1 $-1 15.685 8.4779999999999998 1 #
coedge $-1 -1 -1 $-1 $325 $244 $247 $337 forward $234 $-1 #
coedge $-1 -1 -1 $-1 $244 $325 $252 $339 reversed $234 $-1 #
simple-snl-attrib $-1 -1 $-1 $-1 $245 1 1 1 1 1 1 1 1 1 1 1 1 0 1 0 1 1 1 @17 NEW_SIMPLE_ATTRIB 1 @9 ENTITY_ID 0 3 11 -2147483648 -1 #
straight-curve $-1 -1 -1 $-1 15.185 9.3439999999999994 0 -0.86602058609824373 -0.50000834438442576 0 I I #
edge $-1 -1 -1 $-1 $250 0 $329 1 $333 $366 forward @7 unknown T 7.843 5.1050000000000004 0 7.843 5.1050000000000004 1 #
point $-1 -1 -1 $-1 7.843 5.1050000000000004 0 #
edge $-1 -1 -1 $-1 $255 0 $327 1 $252 $367 forward @7 unknown T 15.185 9.3439999999999994 0 15.185 9.3439999999999994 1 #
simple-snl-attrib $-1 -1 $-1 $-1 $255 1 1 1 1 1 1 1 1 1 1 1 1 0 1 0 1 1 1 @17 NEW_SIMPLE_ATTRIB 1 @9 ENTITY_ID 0 3 11 -2147483648 -1 #
point $-1 -1 -1 $-1 15.185 9.3439999999999994 0 #
straight-curve $-1 -1 -1 $-1 15.685 8.4779999999999998 0 0 0 1 F 0 F 1 #
straight-curve $-1 -1 -1 $-1 8.343 4.2389999999999999 0 0 0 1 F 0 F 1 #
vertex $-1 -1 -1 $-1 $265 $368 #
straight-curve $-1 -1 -1 $-1 7.843 5.1050000000000004 1 -0.5000110003630126 -0.86601905262873846 0 F -1.1547101613579622 F 2.1546881611159581 #
straight-curve $-1 -1 -1 $-1 7.343 4.2389999999999999 1 1 0 0 F -1.0000010000000001 F 2.0000009999999993 #
point $-1 -1 -1 $-1 8.343 4.2389999999999999 1 #
point $-1 -1 -1 $-1 7.843 5.1050000000000004 1 #
edge $-1 -1 -1 $-1 $273 0 $344 1 $275 $369 forward @7 unknown T 7.343 4.2389999999999999 0 7.343 4.2389999999999999 1 #
point $-1 -1 -1 $-1 7.343 4.2389999999999999 0 #
straight-curve $-1 -1 -1 $-1 7.843 5.1050000000000004 0 0 0 1 F 0 F 1 #
straight-curve $-1 -1 -1 $-1 8.343 4.2389999999999999 0 0 0 1 F 0 F 1 #
straight-curve $-1 -1 -1 $-1 7.843 5.1050000000000004 1 -0.5000110003630126 -0.86601905262873846 0 F -1.9999579994719903 F 2.1546881611159581 #
point $-1 -1 -1 $-1 7.343 4.2389999999999999 1 #
point $-1 -1 -1 $-1 7.843 5.1050000000000004 1 #
straight-curve $-1 -1 -1 $-1 7.843 5.1050000000000004 0 -0 -0 -1 F -1 F 0 #
straight-curve $-1 -1 -1 $-1 7.343 4.2389999999999999 0 -0 -0 -1 F -1 F 0 #
straight-curve $-1 -1 -1 $-1 8.343 -4.2389999999999999 1 0 1 0 F -1.0000010000000001 F 9.478000999999999 #
point $-1 -1 -1 $-1 8.343 -4.2389999999999999 1 #
point $-1 -1 -1 $-1 8.343 4.2389999999999999 1 #
straight-curve $-1 -1 -1 $-1 8.343 4.2389999999999999 0 0 0 1 F 0 F 1 #
straight-curve $-1 -1 -1 $-1 8.343 -4.2389999999999999 0 0 0 1 F 0 F 1 #
straight-curve $-1 -1 -1 $-1 15.185 9.3439999999999994 1 -0.86602058609824373 -0.50000834438442576 0 F -1.7320615977018341 F 9.6325666316824261 #
point $-1 -1 -1 $-1 15.185 9.3439999999999994 1 #
point $-1 -1 -1 $-1 7.843 5.1050000000000004 1 #
straight-curve $-1 -1 -1 $-1 7.843 5.1050000000000004 0 0 0 1 F 0 F 1 #
straight-curve $-1 -1 -1 $-1 15.185 9.3439999999999994 0 0 0 1 F 0 F 1 #
point $-1 -1 -1 $-1 7.343 4.2389999999999999 1 #
straight-curve $-1 -1 -1 $-1 7.343 4.2389999999999999 0 0 0 1 F 0 F 1 #
End-of-ACIS-data 