1900 0 1 0           
10 Cubit 12.2 17 ACIS 19.0.2 Linux 24 Fri Jun 21 12:07:00 2013 
1 9.9999999999999995e-07 1e-10 
body $1 -1 -1 $-1 $2 $-1 $-1 T -2.5980759999999998 0.5 0 2.5980759999999998 2.9999999999999996 0 #
integer_attrib-name_attrib-gen-attrib $-1 -1 $-1 $-1 $0 2 1 1 1 1 1 1 1 1 1 1 1 1 1 0 1 1 1 @8 CUBIT_ID 1 #
lump $3 -1 -1 $-1 $-1 $4 $0 T -2.5980759999999998 0.5 0 2.5980759999999998 2.9999999999999996 0 #
integer_attrib-name_attrib-gen-attrib $-1 -1 $-1 $-1 $2 2 1 1 1 1 1 1 1 1 1 1 1 1 1 0 1 1 1 @8 CUBIT_ID 1 #
shell $-1 -1 -1 $-1 $-1 $-1 $5 $-1 $2 T -2.5980759999999998 0.5 0 2.5980759999999998 2.9999999999999996 0 #
face $6 -1 -1 $-1 $-1 $7 $4 $-1 $8 reversed double out T -2.5980759999999998 0.5 0 2.5980759999999998 2.9999999999999996 0 F #
integer_attrib-name_attrib-gen-attrib $-1 -1 $-1 $-1 $5 2 1 1 1 1 1 1 1 1 1 1 1 1 1 0 1 1 1 @8 CUBIT_ID 1 #
loop $-1 -1 -1 $-1 $-1 $9 $5 T -2.5980759999999998 0.5 0 2.5980759999999998 2.9999999999999996 0 unknown #
plane-surface $-1 -1 -1 $-1 -3.5356066215938086e-16 1.6675564783960364 0 0 0 1 1 0 0 forward_v I I I I #
coedge $-1 -1 -1 $-1 $10 $11 $-1 $12 forward $7 $-1 #
coedge $-1 -1 -1 $-1 $13 $9 $-1 $14 forward $7 $-1 #
coedge $-1 -1 -1 $-1 $9 $13 $-1 $15 reversed $7 $-1 #
edge $16 -1 -1 $-1 $17 0 $18 2.0000001666502429 $9 $19 forward @7 unknown T -2.5980759999999998 0.5 0 -0.86602500000000004 1.5 0 #
coedge $-1 -1 -1 $-1 $11 $10 $-1 $20 reversed $7 $-1 #
edge $21 -1 -1 $-1 $18 0 $22 2.0943952432954145 $10 $23 forward @7 unknown T -2.5980759999999998 1.5 0 2.5980759999999998 2.9999999999999996 0 #
edge $24 -1 -1 $-1 $17 0 $25 2.0943959099623548 $11 $26 forward @7 unknown T -0.86602500000000004 0.5 0 0.86602500000000004 0.99999999999999978 0 #
integer_attrib-name_attrib-gen-attrib $-1 -1 $-1 $-1 $12 2 1 1 1 1 1 1 1 1 1 1 1 1 1 0 1 1 1 @8 CUBIT_ID 4 #
vertex $27 -1 -1 $-1 $12 $28 #
vertex $29 -1 -1 $-1 $12 $30 #
straight-curve $-1 -1 -1 $-1 -0.86602500000000004 0.5 0 -0.86602542783832592 0.49999995833744276 0 I I #
edge $31 -1 -1 $-1 $25 0 $22 2.0000001666502429 $13 $32 forward @7 unknown T 0.86602500000000004 0.5 0 2.5980759999999998 1.5 0 #
integer_attrib-name_attrib-gen-attrib $-1 -1 $-1 $-1 $14 2 1 1 1 1 1 1 1 1 1 1 1 1 1 0 1 1 1 @8 CUBIT_ID 2 #
vertex $33 -1 -1 $-1 $14 $34 #
ellipse-curve $-1 -1 -1 $-1 -4.4408920985006262e-16 3.6607466680216305e-07 0 0 0 -1 -2.5980759999999994 1.4999996339253332 0 1 I I #
integer_attrib-name_attrib-gen-attrib $-1 -1 $-1 $-1 $15 2 1 1 1 1 1 1 1 1 1 1 1 1 1 0 1 1 1 @8 CUBIT_ID 1 #
vertex $35 -1 -1 $-1 $20 $36 #
ellipse-curve $-1 -1 -1 $-1 -1.1102230246251565e-16 6.9937499991290508e-07 0 0 0 -1 -0.86602499999999993 0.49999930062500009 0 1 I I #
integer_attrib-name_attrib-gen-attrib $-1 -1 $-1 $-1 $17 2 1 1 1 1 1 1 1 1 1 1 1 1 1 0 1 1 1 @8 CUBIT_ID 5 #
point $-1 -1 -1 $-1 -0.86602500000000004 0.5 0 #
integer_attrib-name_attrib-gen-attrib $-1 -1 $-1 $-1 $18 2 1 1 1 1 1 1 1 1 1 1 1 1 1 0 1 1 1 @8 CUBIT_ID 6 #
point $-1 -1 -1 $-1 -2.5980759999999998 1.5 0 #
integer_attrib-name_attrib-gen-attrib $-1 -1 $-1 $-1 $20 2 1 1 1 1 1 1 1 1 1 1 1 1 1 0 1 1 1 @8 CUBIT_ID 3 #
straight-curve $-1 -1 -1 $-1 0.86602500000000004 0.5 0 0.86602542783832592 0.49999995833744276 0 I I #
integer_attrib-name_attrib-gen-attrib $-1 -1 $-1 $-1 $22 2 1 1 1 1 1 1 1 1 1 1 1 1 1 0 1 1 1 @8 CUBIT_ID 7 #
point $-1 -1 -1 $-1 2.5980759999999998 1.5 0 #
integer_attrib-name_attrib-gen-attrib $-1 -1 $-1 $-1 $25 2 1 1 1 1 1 1 1 1 1 1 1 1 1 0 1 1 1 @8 CUBIT_ID 4 #
point $-1 -1 -1 $-1 0.86602500000000004 0.5 0 #
End-of-ACIS-data 