1600 0 1 0           
10 Cubit 12.2 17 ACIS 19.0.2 Linux 24 Thu Feb 17 18:02:55 2011 
1 9.9999999999999995e-07 1e-10 
body $1 -1 -1 $-1 $2 $-1 $-1 T -0.5 -0.5 -0.5 0.5 0.5 0.5 #
integer_attrib-name_attrib-gen-attrib $-1 -1 $-1 $-1 $0 2 1 1 1 1 1 1 1 1 1 1 1 1 1 0 1 1 1 @8 CUBIT_ID 1 #
lump $3 -1 -1 $-1 $-1 $4 $0 T -0.5 -0.5 -0.5 0.5 0.5 0.5 #
integer_attrib-name_attrib-gen-attrib $-1 -1 $-1 $-1 $2 2 1 1 1 1 1 1 1 1 1 1 1 1 1 0 1 1 1 @8 CUBIT_ID 1 #
shell $-1 -1 -1 $-1 $-1 $-1 $5 $-1 $2 T -0.5 -0.5 -0.5 0.5 0.5 0.5 #
face $6 -1 -1 $-1 $7 $8 $4 $-1 $9 reversed single T -0.10000000000000001 -0.5 -0.10000000000000001 0.10000000000000001 -0.070710678118654724 0.10000000000000003 F #
integer_attrib-name_attrib-gen-attrib $-1 -1 $-1 $-1 $5 2 1 1 1 1 1 1 1 1 1 1 1 1 1 0 1 1 1 @8 CUBIT_ID 25 #
face $10 -1 -1 $-1 $11 $12 $4 $-1 $9 reversed single T -0.10000000000000001 0.070710678118654724 -0.10000000000000003 0.10000000000000001 0.5 0.10000000000000001 F #
loop $-1 -1 -1 $-1 $13 $14 $5 T -0.10000000000000001 -0.5 -0.099999999999999978 0.10000000000000001 -0.5 0.10000000000000003 unknown #
cone-surface $-1 -1 -1 $-1 0 0 0 0 -1 6.1232339957367648e-17 0.10000000000000001 0 0 1 I I 0 1 0.10000000000000001 forward I I I I #
integer_attrib-name_attrib-gen-attrib $-1 -1 $-1 $-1 $7 2 1 1 1 1 1 1 1 1 1 1 1 1 1 0 1 1 1 @8 CUBIT_ID 26 #
face $15 -1 -1 $-1 $16 $17 $4 $-1 $18 reversed single T -0.10000000000000001 -0.10000000000000001 0.070710678118654724 0.10000000000000001 0.10000000000000001 0.5 F #
loop $-1 -1 -1 $-1 $19 $20 $7 T -0.10000000000000001 0.5 -0.10000000000000003 0.10000000000000001 0.5 0.099999999999999978 unknown #
loop $-1 -1 -1 $-1 $-1 $21 $5 T -0.10000000000000001 -0.10000000000000001 -0.10000000000000001 0.10000000000000001 -0.070710678118654724 0.10000000000000001 unknown #
coedge $-1 -1 -1 $-1 $14 $14 $22 $23 reversed $8 $-1 #
integer_attrib-name_attrib-gen-attrib $-1 -1 $-1 $-1 $11 2 1 1 1 1 1 1 1 1 1 1 1 1 1 0 1 1 1 @8 CUBIT_ID 27 #
face $24 -1 -1 $-1 $25 $26 $4 $-1 $27 reversed single T -0.5 -0.10000000000000001 -0.10000000000000003 -0.070710678118654738 0.10000000000000001 0.10000000000000001 F #
loop $-1 -1 -1 $-1 $28 $29 $11 T -0.10000000000000001 -0.10000000000000001 0.5 0.10000000000000001 0.10000000000000001 0.5 unknown #
cone-surface $-1 -1 -1 $-1 0 0 0 0 0 1 0.10000000000000001 0 0 1 I I 0 1 0.10000000000000001 forward I I I I #
loop $-1 -1 -1 $-1 $-1 $30 $7 T -0.10000000000000001 0.070710678118654724 -0.10000000000000001 0.10000000000000001 0.10000000000000001 0.10000000000000001 unknown #
coedge $-1 -1 -1 $-1 $20 $20 $31 $32 reversed $12 $-1 #
coedge $-1 -1 -1 $-1 $33 $34 $35 $36 forward $13 $-1 #
coedge $-1 -1 -1 $-1 $22 $22 $14 $23 forward $37 $-1 #
edge $38 -1 -1 $-1 $39 -3.1415926535897931 $39 3.1415926535897931 $22 $40 forward @7 unknown T -0.10000000000000001 -0.5 -0.099999999999999978 0.10000000000000001 -0.5 0.10000000000000003 #
integer_attrib-name_attrib-gen-attrib $-1 -1 $-1 $-1 $16 2 1 1 1 1 1 1 1 1 1 1 1 1 1 0 1 1 1 @8 CUBIT_ID 28 #
face $41 -1 -1 $-1 $42 $43 $4 $-1 $27 reversed single T 0.070710678118654724 -0.10000000000000001 -0.10000000000000001 0.5 0.10000000000000001 0.10000000000000003 F #
loop $-1 -1 -1 $-1 $44 $45 $16 T -0.5 -0.10000000000000001 -0.10000000000000003 -0.5 0.10000000000000001 0.099999999999999978 unknown #
cone-surface $-1 -1 -1 $-1 0 0 0 1 0 6.1232339957367648e-17 6.1232339957367648e-18 0 -0.10000000000000001 1 I I 0 1 0.10000000000000001 forward I I I I #
loop $-1 -1 -1 $-1 $-1 $46 $11 T -0.10000000000000001 -0.10000000000000001 0.070710678118654724 0.10000000000000001 0.10000000000000001 0.10000000000000001 unknown #
coedge $-1 -1 -1 $-1 $29 $29 $47 $48 reversed $17 $-1 #
coedge $-1 -1 -1 $-1 $49 $50 $51 $52 forward $19 $-1 #
coedge $-1 -1 -1 $-1 $31 $31 $20 $32 forward $53 $-1 #
edge $54 -1 -1 $-1 $55 -3.1415926535897931 $55 3.1415926535897931 $31 $56 forward @7 unknown T -0.10000000000000001 0.5 -0.10000000000000003 0.10000000000000001 0.5 0.099999999999999978 #
coedge $-1 -1 -1 $-1 $57 $21 $58 $59 forward $13 $-1 #
coedge $-1 -1 -1 $-1 $21 $57 $46 $60 forward $13 $-1 #
coedge $-1 -1 -1 $-1 $61 $62 $21 $36 reversed $63 $-1 #
edge $64 -1 -1 $-1 $65 -0.7853981633974485 $66 0.78539816339744828 $35 $67 forward @7 unknown T 0.070710678118654724 -0.10000000000000001 -0.070710678118654738 0.10000000000000001 -0.070710678118654724 0.070710678118654779 #
loop $-1 -1 -1 $-1 $68 $22 $69 T -0.10000000000000001 -0.5 -0.099999999999999978 0.10000000000000001 -0.5 0.10000000000000003 hole $70 T #
integer_attrib-name_attrib-gen-attrib $-1 -1 $-1 $-1 $23 2 1 1 1 1 1 1 1 1 1 1 1 1 1 0 1 1 1 @8 CUBIT_ID 33 #
vertex $71 -1 -1 $-1 $23 $72 #
ellipse-curve $-1 -1 -1 $-1 0 -0.5 3.0616169978683824e-17 0 1 -0 0.10000000000000001 0 0 1 I I #
integer_attrib-name_attrib-gen-attrib $-1 -1 $-1 $-1 $25 2 1 1 1 1 1 1 1 1 1 1 1 1 1 0 1 1 1 @8 CUBIT_ID 29 #
face $73 -1 -1 $-1 $74 $75 $4 $-1 $18 reversed single T -0.10000000000000001 -0.10000000000000001 -0.5 0.10000000000000001 0.10000000000000001 -0.070710678118654724 F #
loop $-1 -1 -1 $-1 $63 $76 $25 T 0.5 -0.10000000000000001 -0.099999999999999978 0.5 0.10000000000000001 0.10000000000000003 unknown #
loop $-1 -1 -1 $-1 $-1 $77 $16 T -0.10000000000000001 -0.10000000000000001 -0.10000000000000001 -0.070710678118654738 0.10000000000000001 0.10000000000000001 unknown #
coedge $-1 -1 -1 $-1 $45 $45 $78 $79 reversed $26 $-1 #
coedge $-1 -1 -1 $-1 $80 $81 $34 $60 reversed $28 $-1 #
coedge $-1 -1 -1 $-1 $47 $47 $29 $48 forward $82 $-1 #
edge $83 -1 -1 $-1 $84 -3.1415926535897931 $84 3.1415926535897931 $47 $85 forward @7 unknown T -0.10000000000000001 -0.10000000000000001 0.5 0.10000000000000001 0.10000000000000001 0.5 #
coedge $-1 -1 -1 $-1 $86 $30 $87 $88 forward $19 $-1 #
coedge $-1 -1 -1 $-1 $30 $86 $89 $90 forward $19 $-1 #
coedge $-1 -1 -1 $-1 $62 $61 $30 $52 reversed $63 $-1 #
edge $91 -1 -1 $-1 $92 -0.78539816339744828 $93 0.78539816339744828 $51 $94 forward @7 unknown T 0.070710678118654738 0.070710678118654738 -0.070710678118654752 0.10000000000000001 0.10000000000000001 0.070710678118654738 #
loop $-1 -1 -1 $-1 $95 $31 $96 T -0.10000000000000001 0.5 -0.10000000000000003 0.10000000000000001 0.5 0.099999999999999978 hole $97 T #
integer_attrib-name_attrib-gen-attrib $-1 -1 $-1 $-1 $32 2 1 1 1 1 1 1 1 1 1 1 1 1 1 0 1 1 1 @8 CUBIT_ID 38 #
vertex $98 -1 -1 $-1 $32 $99 #
ellipse-curve $-1 -1 -1 $-1 0 0.5 -3.0616169978683824e-17 0 -1 0 0.10000000000000001 0 0 1 I I #
coedge $-1 -1 -1 $-1 $34 $33 $77 $100 forward $13 $-1 #
coedge $-1 -1 -1 $-1 $101 $102 $33 $59 reversed $103 $-1 #
edge $104 -1 -1 $-1 $66 2.3561944901923448 $105 3.9269908169872414 $58 $106 forward @7 unknown T -0.070710678118654738 -0.10000000000000001 -0.10000000000000001 0.070710678118654738 -0.070710678118654738 -0.070710678118654738 #
edge $107 -1 -1 $-1 $108 -0.7853981633974485 $65 0.7853981633974485 $46 $109 forward @7 unknown T -0.070710678118654779 -0.10000000000000001 0.070710678118654724 0.070710678118654779 -0.070710678118654724 0.10000000000000001 #
coedge $-1 -1 -1 $-1 $51 $35 $81 $110 forward $63 $-1 #
coedge $-1 -1 -1 $-1 $35 $51 $101 $111 forward $63 $-1 #
loop $-1 -1 -1 $-1 $-1 $35 $25 T 0.070710678118654724 -0.10000000000000001 -0.10000000000000001 0.10000000000000001 0.10000000000000001 0.10000000000000001 unknown #
integer_attrib-name_attrib-gen-attrib $-1 -1 $-1 $-1 $36 2 1 1 1 1 1 1 1 1 1 1 1 1 1 0 1 1 1 @8 CUBIT_ID 34 #
vertex $112 -1 -1 $-1 $110 $113 #
vertex $114 -1 -1 $-1 $36 $115 #
ellipse-curve $-1 -1 -1 $-1 0 0 0 0.70710678118654746 0.70710678118654746 -0 0.10000000000000001 -0.10000000000000001 6.1232339957367648e-18 0.70710678118654746 I I #
loop $-1 -1 -1 $-1 $-1 $116 $69 T -0.5 -0.5 -0.5 0.5 -0.5 0.5 periphery $70 T #
face $117 -1 -1 $-1 $118 $37 $4 $-1 $70 reversed single T -0.5 -0.5 -0.5 0.5 -0.5 0.5 F #
plane-surface $-1 -1 -1 $-1 0 -0.5 0 0 1 -0 -0 0 1 forward_v I I I I #
integer_attrib-name_attrib-gen-attrib $-1 -1 $-1 $-1 $39 2 1 1 1 1 1 1 1 1 1 1 1 1 1 0 1 1 1 @8 CUBIT_ID 25 #
point $-1 -1 -1 $-1 -0.10000000000000001 -0.5 4.2862637970157354e-17 #
integer_attrib-name_attrib-gen-attrib $-1 -1 $-1 $-1 $42 2 1 1 1 1 1 1 1 1 1 1 1 1 1 0 1 1 1 @8 CUBIT_ID 30 #
face $119 -1 -1 $-1 $120 $82 $4 $-1 $121 forward single T -0.5 -0.5 0.5 0.5 0.5 0.5 F #
loop $-1 -1 -1 $-1 $103 $122 $42 T -0.10000000000000001 -0.10000000000000001 -0.5 0.10000000000000001 0.10000000000000001 -0.5 unknown #
coedge $-1 -1 -1 $-1 $76 $76 $123 $124 reversed $43 $-1 #
coedge $-1 -1 -1 $-1 $125 $126 $57 $100 reversed $44 $-1 #
coedge $-1 -1 -1 $-1 $78 $78 $45 $79 forward $127 $-1 #
edge $128 -1 -1 $-1 $129 -3.1415926535897931 $129 3.1415926535897931 $78 $130 forward @7 unknown T -0.5 -0.10000000000000001 -0.10000000000000003 -0.5 0.10000000000000001 0.099999999999999978 #
coedge $-1 -1 -1 $-1 $87 $46 $126 $131 reversed $28 $-1 #
coedge $-1 -1 -1 $-1 $46 $87 $61 $110 reversed $28 $-1 #
loop $-1 -1 -1 $-1 $132 $47 $74 T -0.10000000000000001 -0.10000000000000001 0.5 0.10000000000000001 0.10000000000000001 0.5 hole $121 F #
integer_attrib-name_attrib-gen-attrib $-1 -1 $-1 $-1 $48 2 1 1 1 1 1 1 1 1 1 1 1 1 1 0 1 1 1 @8 CUBIT_ID 43 #
vertex $133 -1 -1 $-1 $48 $134 #
ellipse-curve $-1 -1 -1 $-1 0 0 0.5 -0 -0 -1 0.10000000000000001 0 0 1 I I #
coedge $-1 -1 -1 $-1 $50 $49 $135 $136 forward $19 $-1 #
coedge $-1 -1 -1 $-1 $81 $80 $49 $88 reversed $28 $-1 #
edge $137 -1 -1 $-1 $93 -0.78539816339744828 $138 0.78539816339744828 $87 $139 forward @7 unknown T -0.070710678118654752 0.070710678118654738 0.070710678118654738 0.070710678118654738 0.10000000000000001 0.10000000000000001 #
coedge $-1 -1 -1 $-1 $102 $101 $50 $90 reversed $103 $-1 #
edge $140 -1 -1 $-1 $141 2.3561944901923448 $92 3.9269908169872414 $89 $142 forward @7 unknown T -0.070710678118654752 0.070710678118654724 -0.10000000000000001 0.070710678118654752 0.10000000000000001 -0.070710678118654752 #
integer_attrib-name_attrib-gen-attrib $-1 -1 $-1 $-1 $52 2 1 1 1 1 1 1 1 1 1 1 1 1 1 0 1 1 1 @8 CUBIT_ID 39 #
vertex $143 -1 -1 $-1 $111 $144 #
vertex $145 -1 -1 $-1 $52 $146 #
ellipse-curve $-1 -1 -1 $-1 0 0 0 0.70710678118654746 -0.70710678118654746 8.6595605623549292e-17 0.10000000000000001 0.10000000000000001 -6.1232339957367648e-18 0.70710678118654746 I I #
loop $-1 -1 -1 $-1 $-1 $147 $96 T -0.5 0.5 -0.5 0.5 0.5 0.5 periphery $97 T #
face $148 -1 -1 $-1 $149 $53 $4 $-1 $97 reversed single T -0.5 0.5 -0.5 0.5 0.5 0.5 F #
plane-surface $-1 -1 -1 $-1 0 0.5 0 0 -1 0 0 0 -1 forward_v I I I I #
integer_attrib-name_attrib-gen-attrib $-1 -1 $-1 $-1 $55 2 1 1 1 1 1 1 1 1 1 1 1 1 1 0 1 1 1 @8 CUBIT_ID 30 #
point $-1 -1 -1 $-1 -0.10000000000000001 0.5 -4.2862637970157354e-17 #
edge $150 -1 -1 $-1 $105 2.3561944901923448 $108 3.9269908169872414 $77 $151 forward @7 unknown T -0.10000000000000001 -0.10000000000000001 -0.070710678118654738 -0.070710678118654738 -0.070710678118654738 0.070710678118654779 #
coedge $-1 -1 -1 $-1 $89 $58 $62 $111 reversed $103 $-1 #
coedge $-1 -1 -1 $-1 $58 $89 $125 $152 reversed $103 $-1 #
loop $-1 -1 -1 $-1 $-1 $58 $42 T -0.10000000000000001 -0.10000000000000001 -0.10000000000000001 0.10000000000000001 0.10000000000000001 -0.070710678118654724 unknown #
integer_attrib-name_attrib-gen-attrib $-1 -1 $-1 $-1 $59 2 1 1 1 1 1 1 1 1 1 1 1 1 1 0 1 1 1 @8 CUBIT_ID 35 #
vertex $153 -1 -1 $-1 $152 $154 #
ellipse-curve $-1 -1 -1 $-1 0 0 0 -0 0.70710678118654746 -0.70710678118654746 -0 0.10000000000000001 0.10000000000000001 0.70710678118654746 I I #
integer_attrib-name_attrib-gen-attrib $-1 -1 $-1 $-1 $60 2 1 1 1 1 1 1 1 1 1 1 1 1 1 0 1 1 1 @8 CUBIT_ID 37 #
vertex $155 -1 -1 $-1 $60 $156 #
ellipse-curve $-1 -1 -1 $-1 0 0 0 -0 0.70710678118654746 0.70710678118654746 0 -0.10000000000000001 0.10000000000000001 0.70710678118654746 I I #
edge $157 -1 -1 $-1 $65 2.3561944901923448 $93 3.9269908169872414 $81 $158 forward @7 unknown T 0.070710678118654738 -0.070710678118654738 0.070710678118654738 0.10000000000000001 0.070710678118654766 0.10000000000000001 #
edge $159 -1 -1 $-1 $92 -0.78539816339744828 $66 0.7853981633974485 $101 $160 forward @7 unknown T 0.070710678118654724 -0.070710678118654766 -0.10000000000000001 0.10000000000000001 0.070710678118654738 -0.070710678118654724 #
integer_attrib-name_attrib-gen-attrib $-1 -1 $-1 $-1 $65 2 1 1 1 1 1 1 1 1 1 1 1 1 1 0 1 1 1 @8 CUBIT_ID 26 #
point $-1 -1 -1 $-1 0.070710678118654779 -0.070710678118654724 0.070710678118654779 #
integer_attrib-name_attrib-gen-attrib $-1 -1 $-1 $-1 $66 2 1 1 1 1 1 1 1 1 1 1 1 1 1 0 1 1 1 @8 CUBIT_ID 27 #
point $-1 -1 -1 $-1 0.070710678118654738 -0.070710678118654766 -0.070710678118654738 #
coedge $-1 -1 -1 $-1 $161 $162 $163 $164 forward $68 $-1 #
integer_attrib-name_attrib-gen-attrib $-1 -1 $-1 $-1 $69 2 1 1 1 1 1 1 1 1 1 1 1 1 1 0 1 1 1 @8 CUBIT_ID 33 #
face $165 -1 -1 $-1 $96 $127 $4 $-1 $166 reversed single T -0.5 -0.5 -0.5 -0.5 0.5 0.5 F #
integer_attrib-name_attrib-gen-attrib $-1 -1 $-1 $-1 $74 2 1 1 1 1 1 1 1 1 1 1 1 1 1 0 1 1 1 @8 CUBIT_ID 31 #
face $167 -1 -1 $-1 $69 $168 $4 $-1 $169 reversed single T -0.5 -0.5 -0.5 0.5 0.5 -0.5 F #
plane-surface $-1 -1 -1 $-1 0 0 0.5 0 0 1 1 0 0 forward_v I I I I #
coedge $-1 -1 -1 $-1 $122 $122 $170 $171 reversed $75 $-1 #
coedge $-1 -1 -1 $-1 $123 $123 $76 $124 forward $172 $-1 #
edge $173 -1 -1 $-1 $174 -3.1415926535897931 $174 3.1415926535897931 $123 $175 forward @7 unknown T 0.5 -0.10000000000000001 -0.099999999999999978 0.5 0.10000000000000001 0.10000000000000003 #
coedge $-1 -1 -1 $-1 $135 $77 $102 $152 forward $44 $-1 #
coedge $-1 -1 -1 $-1 $77 $135 $80 $131 forward $44 $-1 #
loop $-1 -1 -1 $-1 $176 $78 $118 T -0.5 -0.10000000000000001 -0.10000000000000003 -0.5 0.10000000000000001 0.099999999999999978 hole $166 T #
integer_attrib-name_attrib-gen-attrib $-1 -1 $-1 $-1 $79 2 1 1 1 1 1 1 1 1 1 1 1 1 1 0 1 1 1 @8 CUBIT_ID 46 #
vertex $177 -1 -1 $-1 $79 $178 #
ellipse-curve $-1 -1 -1 $-1 -0.5 0 -3.0616169978683824e-17 1 0 0 6.1232339957367648e-18 0 -0.10000000000000001 1 I I #
edge $179 -1 -1 $-1 $138 2.3561944901923448 $108 3.9269908169872414 $80 $180 forward @7 unknown T -0.10000000000000001 -0.070710678118654738 0.070710678118654752 -0.070710678118654752 0.070710678118654738 0.10000000000000001 #
loop $-1 -1 -1 $-1 $-1 $181 $74 T -0.5 -0.5 0.5 0.5 0.5 0.5 periphery $121 F #
integer_attrib-name_attrib-gen-attrib $-1 -1 $-1 $-1 $84 2 1 1 1 1 1 1 1 1 1 1 1 1 1 0 1 1 1 @8 CUBIT_ID 35 #
point $-1 -1 -1 $-1 -0.10000000000000001 1.224646799147353e-17 0.5 #
coedge $-1 -1 -1 $-1 $126 $125 $86 $136 reversed $44 $-1 #
edge $182 -1 -1 $-1 $138 2.3561944901923448 $141 3.9269908169872414 $135 $183 forward @7 unknown T -0.10000000000000001 0.070710678118654724 -0.070710678118654752 -0.070710678118654752 0.10000000000000001 0.070710678118654752 #
integer_attrib-name_attrib-gen-attrib $-1 -1 $-1 $-1 $88 2 1 1 1 1 1 1 1 1 1 1 1 1 1 0 1 1 1 @8 CUBIT_ID 40 #
vertex $184 -1 -1 $-1 $131 $185 #
ellipse-curve $-1 -1 -1 $-1 0 0 0 0 -0.70710678118654746 0.70710678118654746 -0 0.10000000000000001 0.10000000000000001 0.70710678118654746 I I #
integer_attrib-name_attrib-gen-attrib $-1 -1 $-1 $-1 $90 2 1 1 1 1 1 1 1 1 1 1 1 1 1 0 1 1 1 @8 CUBIT_ID 42 #
vertex $186 -1 -1 $-1 $90 $187 #
ellipse-curve $-1 -1 -1 $-1 0 0 0 0 -0.70710678118654746 -0.70710678118654746 0 -0.10000000000000001 0.10000000000000001 0.70710678118654746 I I #
integer_attrib-name_attrib-gen-attrib $-1 -1 $-1 $-1 $92 2 1 1 1 1 1 1 1 1 1 1 1 1 1 0 1 1 1 @8 CUBIT_ID 31 #
point $-1 -1 -1 $-1 0.070710678118654752 0.070710678118654738 -0.070710678118654752 #
integer_attrib-name_attrib-gen-attrib $-1 -1 $-1 $-1 $93 2 1 1 1 1 1 1 1 1 1 1 1 1 1 0 1 1 1 @8 CUBIT_ID 32 #
point $-1 -1 -1 $-1 0.070710678118654738 0.070710678118654766 0.070710678118654738 #
coedge $-1 -1 -1 $-1 $188 $189 $190 $191 forward $95 $-1 #
integer_attrib-name_attrib-gen-attrib $-1 -1 $-1 $-1 $96 2 1 1 1 1 1 1 1 1 1 1 1 1 1 0 1 1 1 @8 CUBIT_ID 35 #
face $192 -1 -1 $-1 $-1 $172 $4 $-1 $193 reversed single T 0.5 -0.5 -0.5 0.5 0.5 0.5 F #
integer_attrib-name_attrib-gen-attrib $-1 -1 $-1 $-1 $100 2 1 1 1 1 1 1 1 1 1 1 1 1 1 0 1 1 1 @8 CUBIT_ID 36 #
ellipse-curve $-1 -1 -1 $-1 0 0 0 -0.70710678118654746 0.70710678118654746 -8.6595605623549292e-17 0.10000000000000001 0.10000000000000001 -6.1232339957367648e-18 0.70710678118654746 I I #
edge $194 -1 -1 $-1 $105 -0.78539816339744828 $141 0.78539816339744806 $102 $195 forward @7 unknown T -0.10000000000000001 -0.070710678118654738 -0.10000000000000001 -0.070710678118654738 0.070710678118654724 -0.070710678118654738 #
integer_attrib-name_attrib-gen-attrib $-1 -1 $-1 $-1 $105 2 1 1 1 1 1 1 1 1 1 1 1 1 1 0 1 1 1 @8 CUBIT_ID 28 #
point $-1 -1 -1 $-1 -0.070710678118654738 -0.070710678118654738 -0.070710678118654738 #
integer_attrib-name_attrib-gen-attrib $-1 -1 $-1 $-1 $108 2 1 1 1 1 1 1 1 1 1 1 1 1 1 0 1 1 1 @8 CUBIT_ID 29 #
point $-1 -1 -1 $-1 -0.070710678118654779 -0.070710678118654738 0.070710678118654779 #
integer_attrib-name_attrib-gen-attrib $-1 -1 $-1 $-1 $110 2 1 1 1 1 1 1 1 1 1 1 1 1 1 0 1 1 1 @8 CUBIT_ID 45 #
ellipse-curve $-1 -1 -1 $-1 0 0 0 -0.70710678118654746 -0 0.70710678118654746 -0.10000000000000001 0 -0.10000000000000001 0.70710678118654746 I I #
integer_attrib-name_attrib-gen-attrib $-1 -1 $-1 $-1 $111 2 1 1 1 1 1 1 1 1 1 1 1 1 1 0 1 1 1 @8 CUBIT_ID 49 #
ellipse-curve $-1 -1 -1 $-1 0 0 0 -0.70710678118654746 0 -0.70710678118654746 0.10000000000000001 0 -0.10000000000000001 0.70710678118654746 I I #
coedge $-1 -1 -1 $-1 $196 $116 $197 $198 reversed $68 $-1 #
coedge $-1 -1 -1 $-1 $116 $196 $199 $200 reversed $68 $-1 #
coedge $-1 -1 -1 $-1 $201 $202 $116 $164 reversed $176 $-1 #
edge $203 -1 -1 $-1 $204 -0.5 $205 0.5 $163 $206 forward @7 unknown T -0.5 -0.5 -0.5 -0.5 -0.5 0.5 #
integer_attrib-name_attrib-gen-attrib $-1 -1 $-1 $-1 $118 2 1 1 1 1 1 1 1 1 1 1 1 1 1 0 1 1 1 @8 CUBIT_ID 34 #
plane-surface $-1 -1 -1 $-1 -0.5 0 0 1 0 0 0 0 -1 forward_v I I I I #
integer_attrib-name_attrib-gen-attrib $-1 -1 $-1 $-1 $120 2 1 1 1 1 1 1 1 1 1 1 1 1 1 0 1 1 1 @8 CUBIT_ID 32 #
loop $-1 -1 -1 $-1 $207 $170 $120 T -0.10000000000000001 -0.10000000000000001 -0.5 0.10000000000000001 0.10000000000000001 -0.5 hole $169 T #
plane-surface $-1 -1 -1 $-1 0 0 -0.5 0 0 1 1 0 0 forward_v I I I I #
coedge $-1 -1 -1 $-1 $170 $170 $122 $171 forward $168 $-1 #
edge $208 -1 -1 $-1 $209 -3.1415926535897931 $209 3.1415926535897931 $170 $210 forward @7 unknown T -0.10000000000000001 -0.10000000000000001 -0.5 0.10000000000000001 0.10000000000000001 -0.5 #
loop $-1 -1 -1 $-1 $211 $123 $149 T 0.5 -0.10000000000000001 -0.099999999999999978 0.5 0.10000000000000001 0.10000000000000003 hole $193 T #
integer_attrib-name_attrib-gen-attrib $-1 -1 $-1 $-1 $124 2 1 1 1 1 1 1 1 1 1 1 1 1 1 0 1 1 1 @8 CUBIT_ID 48 #
vertex $212 -1 -1 $-1 $124 $213 #
ellipse-curve $-1 -1 -1 $-1 0.5 0 3.0616169978683824e-17 -1 0 0 6.1232339957367648e-18 0 -0.10000000000000001 1 I I #
loop $-1 -1 -1 $-1 $-1 $214 $118 T -0.5 -0.5 -0.5 -0.5 0.5 0.5 periphery $166 T #
integer_attrib-name_attrib-gen-attrib $-1 -1 $-1 $-1 $129 2 1 1 1 1 1 1 1 1 1 1 1 1 1 0 1 1 1 @8 CUBIT_ID 36 #
point $-1 -1 -1 $-1 -0.5 -1.224646799147353e-17 0.099999999999999978 #
integer_attrib-name_attrib-gen-attrib $-1 -1 $-1 $-1 $131 2 1 1 1 1 1 1 1 1 1 1 1 1 1 0 1 1 1 @8 CUBIT_ID 44 #
ellipse-curve $-1 -1 -1 $-1 0 0 0 0.70710678118654746 -0 0.70710678118654746 0.10000000000000001 0 -0.10000000000000001 0.70710678118654746 I I #
coedge $-1 -1 -1 $-1 $215 $199 $216 $217 forward $132 $-1 #
integer_attrib-name_attrib-gen-attrib $-1 -1 $-1 $-1 $136 2 1 1 1 1 1 1 1 1 1 1 1 1 1 0 1 1 1 @8 CUBIT_ID 41 #
ellipse-curve $-1 -1 -1 $-1 0 0 0 -0.70710678118654746 -0.70710678118654746 0 0.10000000000000001 -0.10000000000000001 6.1232339957367648e-18 0.70710678118654746 I I #
integer_attrib-name_attrib-gen-attrib $-1 -1 $-1 $-1 $138 2 1 1 1 1 1 1 1 1 1 1 1 1 1 0 1 1 1 @8 CUBIT_ID 33 #
point $-1 -1 -1 $-1 -0.070710678118654752 0.070710678118654738 0.070710678118654752 #
integer_attrib-name_attrib-gen-attrib $-1 -1 $-1 $-1 $141 2 1 1 1 1 1 1 1 1 1 1 1 1 1 0 1 1 1 @8 CUBIT_ID 34 #
point $-1 -1 -1 $-1 -0.070710678118654752 0.070710678118654724 -0.070710678118654752 #
coedge $-1 -1 -1 $-1 $218 $147 $219 $220 reversed $95 $-1 #
coedge $-1 -1 -1 $-1 $147 $218 $215 $221 reversed $95 $-1 #
coedge $-1 -1 -1 $-1 $216 $222 $147 $191 reversed $211 $-1 #
edge $223 -1 -1 $-1 $224 -0.5 $225 0.5 $190 $226 forward @7 unknown T 0.5 0.5 -0.5 0.5 0.5 0.5 #
integer_attrib-name_attrib-gen-attrib $-1 -1 $-1 $-1 $149 2 1 1 1 1 1 1 1 1 1 1 1 1 1 0 1 1 1 @8 CUBIT_ID 36 #
plane-surface $-1 -1 -1 $-1 0.5 0 0 -1 0 0 0 -0 1 forward_v I I I I #
integer_attrib-name_attrib-gen-attrib $-1 -1 $-1 $-1 $152 2 1 1 1 1 1 1 1 1 1 1 1 1 1 0 1 1 1 @8 CUBIT_ID 47 #
ellipse-curve $-1 -1 -1 $-1 0 0 0 0.70710678118654746 0 -0.70710678118654746 -0.10000000000000001 0 -0.10000000000000001 0.70710678118654746 I I #
coedge $-1 -1 -1 $-1 $162 $161 $227 $228 reversed $68 $-1 #
coedge $-1 -1 -1 $-1 $229 $230 $161 $198 forward $207 $-1 #
edge $231 -1 -1 $-1 $232 -0.5 $205 0.5 $161 $233 forward @7 unknown T -0.5 -0.5 -0.5 0.5 -0.5 -0.5 #
coedge $-1 -1 -1 $-1 $181 $234 $162 $200 forward $132 $-1 #
edge $235 -1 -1 $-1 $204 -0.5 $236 0.5 $162 $237 forward @7 unknown T -0.5 -0.5 0.5 0.5 -0.5 0.5 #
coedge $-1 -1 -1 $-1 $214 $163 $234 $238 reversed $176 $-1 #
coedge $-1 -1 -1 $-1 $163 $214 $229 $239 reversed $176 $-1 #
integer_attrib-name_attrib-gen-attrib $-1 -1 $-1 $-1 $164 2 1 1 1 1 1 1 1 1 1 1 1 1 1 0 1 1 1 @8 CUBIT_ID 9 #
vertex $240 -1 -1 $-1 $238 $241 #
vertex $242 -1 -1 $-1 $239 $243 #
straight-curve $-1 -1 -1 $-1 -0.5 -0.5 0 0 0 -1 I I #
loop $-1 -1 -1 $-1 $-1 $230 $120 T -0.5 -0.5 -0.5 0.5 0.5 -0.5 periphery $169 T #
integer_attrib-name_attrib-gen-attrib $-1 -1 $-1 $-1 $171 2 1 1 1 1 1 1 1 1 1 1 1 1 1 0 1 1 1 @8 CUBIT_ID 50 #
vertex $244 -1 -1 $-1 $171 $245 #
ellipse-curve $-1 -1 -1 $-1 0 0 -0.5 0 0 1 0.10000000000000001 0 0 1 I I #
loop $-1 -1 -1 $-1 $-1 $227 $149 T 0.5 -0.5 -0.5 0.5 0.5 0.5 periphery $193 T #
integer_attrib-name_attrib-gen-attrib $-1 -1 $-1 $-1 $174 2 1 1 1 1 1 1 1 1 1 1 1 1 1 0 1 1 1 @8 CUBIT_ID 37 #
point $-1 -1 -1 $-1 0.5 1.224646799147353e-17 0.10000000000000003 #
coedge $-1 -1 -1 $-1 $202 $201 $218 $246 forward $176 $-1 #
coedge $-1 -1 -1 $-1 $234 $181 $189 $221 forward $132 $-1 #
coedge $-1 -1 -1 $-1 $227 $190 $181 $217 reversed $211 $-1 #
edge $247 -1 -1 $-1 $236 -0.5 $224 0.5 $216 $248 forward @7 unknown T 0.5 -0.5 0.5 0.5 0.5 0.5 #
coedge $-1 -1 -1 $-1 $189 $188 $214 $246 reversed $95 $-1 #
coedge $-1 -1 -1 $-1 $230 $229 $188 $220 forward $207 $-1 #
edge $249 -1 -1 $-1 $250 -0.5 $225 0.5 $188 $251 forward @7 unknown T -0.5 0.5 -0.5 0.5 0.5 -0.5 #
edge $252 -1 -1 $-1 $224 -0.5 $253 0.5 $189 $254 forward @7 unknown T -0.5 0.5 0.5 0.5 0.5 0.5 #
coedge $-1 -1 -1 $-1 $190 $227 $230 $255 reversed $211 $-1 #
integer_attrib-name_attrib-gen-attrib $-1 -1 $-1 $-1 $191 2 1 1 1 1 1 1 1 1 1 1 1 1 1 0 1 1 1 @8 CUBIT_ID 12 #
vertex $256 -1 -1 $-1 $217 $257 #
vertex $258 -1 -1 $-1 $255 $259 #
straight-curve $-1 -1 -1 $-1 0.5 0.5 0 0 0 -1 I I #
coedge $-1 -1 -1 $-1 $222 $216 $196 $228 forward $211 $-1 #
edge $260 -1 -1 $-1 $236 -0.5 $232 0.5 $227 $261 forward @7 unknown T 0.5 -0.5 -0.5 0.5 -0.5 0.5 #
coedge $-1 -1 -1 $-1 $219 $197 $202 $239 forward $207 $-1 #
coedge $-1 -1 -1 $-1 $197 $219 $222 $255 forward $207 $-1 #
integer_attrib-name_attrib-gen-attrib $-1 -1 $-1 $-1 $198 2 1 1 1 1 1 1 1 1 1 1 1 1 1 0 1 1 1 @8 CUBIT_ID 6 #
vertex $262 -1 -1 $-1 $228 $263 #
straight-curve $-1 -1 -1 $-1 0 -0.5 -0.5 -1 0 0 I I #
coedge $-1 -1 -1 $-1 $199 $215 $201 $238 forward $132 $-1 #
integer_attrib-name_attrib-gen-attrib $-1 -1 $-1 $-1 $200 2 1 1 1 1 1 1 1 1 1 1 1 1 1 0 1 1 1 @8 CUBIT_ID 4 #
vertex $264 -1 -1 $-1 $217 $265 #
straight-curve $-1 -1 -1 $-1 0 -0.5 0.5 1 0 0 I I #
edge $266 -1 -1 $-1 $253 -0.5 $204 0.5 $201 $267 forward @7 unknown T -0.5 -0.5 0.5 -0.5 0.5 0.5 #
edge $268 -1 -1 $-1 $205 -0.5 $250 0.5 $202 $269 forward @7 unknown T -0.5 -0.5 -0.5 -0.5 0.5 -0.5 #
integer_attrib-name_attrib-gen-attrib $-1 -1 $-1 $-1 $204 2 1 1 1 1 1 1 1 1 1 1 1 1 1 0 1 1 1 @8 CUBIT_ID 4 #
point $-1 -1 -1 $-1 -0.5 -0.5 0.5 #
integer_attrib-name_attrib-gen-attrib $-1 -1 $-1 $-1 $205 2 1 1 1 1 1 1 1 1 1 1 1 1 1 0 1 1 1 @8 CUBIT_ID 7 #
point $-1 -1 -1 $-1 -0.5 -0.5 -0.5 #
integer_attrib-name_attrib-gen-attrib $-1 -1 $-1 $-1 $209 2 1 1 1 1 1 1 1 1 1 1 1 1 1 0 1 1 1 @8 CUBIT_ID 38 #
point $-1 -1 -1 $-1 -0.10000000000000001 -1.224646799147353e-17 -0.5 #
edge $270 -1 -1 $-1 $253 -0.5 $250 0.5 $218 $271 forward @7 unknown T -0.5 0.5 -0.5 -0.5 0.5 0.5 #
integer_attrib-name_attrib-gen-attrib $-1 -1 $-1 $-1 $217 2 1 1 1 1 1 1 1 1 1 1 1 1 1 0 1 1 1 @8 CUBIT_ID 1 #
straight-curve $-1 -1 -1 $-1 0.5 0 0.5 0 1 0 I I #
integer_attrib-name_attrib-gen-attrib $-1 -1 $-1 $-1 $220 2 1 1 1 1 1 1 1 1 1 1 1 1 1 0 1 1 1 @8 CUBIT_ID 8 #
vertex $272 -1 -1 $-1 $220 $273 #
straight-curve $-1 -1 -1 $-1 0 0.5 -0.5 1 0 0 I I #
integer_attrib-name_attrib-gen-attrib $-1 -1 $-1 $-1 $221 2 1 1 1 1 1 1 1 1 1 1 1 1 1 0 1 1 1 @8 CUBIT_ID 2 #
vertex $274 -1 -1 $-1 $221 $275 #
straight-curve $-1 -1 -1 $-1 0 0.5 0.5 -1 0 0 I I #
edge $276 -1 -1 $-1 $225 -0.5 $232 0.5 $222 $277 forward @7 unknown T 0.5 -0.5 -0.5 0.5 0.5 -0.5 #
integer_attrib-name_attrib-gen-attrib $-1 -1 $-1 $-1 $224 2 1 1 1 1 1 1 1 1 1 1 1 1 1 0 1 1 1 @8 CUBIT_ID 2 #
point $-1 -1 -1 $-1 0.5 0.5 0.5 #
integer_attrib-name_attrib-gen-attrib $-1 -1 $-1 $-1 $225 2 1 1 1 1 1 1 1 1 1 1 1 1 1 0 1 1 1 @8 CUBIT_ID 5 #
point $-1 -1 -1 $-1 0.5 0.5 -0.5 #
integer_attrib-name_attrib-gen-attrib $-1 -1 $-1 $-1 $228 2 1 1 1 1 1 1 1 1 1 1 1 1 1 0 1 1 1 @8 CUBIT_ID 10 #
straight-curve $-1 -1 -1 $-1 0.5 -0.5 0 0 0 -1 I I #
integer_attrib-name_attrib-gen-attrib $-1 -1 $-1 $-1 $232 2 1 1 1 1 1 1 1 1 1 1 1 1 1 0 1 1 1 @8 CUBIT_ID 6 #
point $-1 -1 -1 $-1 0.5 -0.5 -0.5 #
integer_attrib-name_attrib-gen-attrib $-1 -1 $-1 $-1 $236 2 1 1 1 1 1 1 1 1 1 1 1 1 1 0 1 1 1 @8 CUBIT_ID 1 #
point $-1 -1 -1 $-1 0.5 -0.5 0.5 #
integer_attrib-name_attrib-gen-attrib $-1 -1 $-1 $-1 $238 2 1 1 1 1 1 1 1 1 1 1 1 1 1 0 1 1 1 @8 CUBIT_ID 3 #
straight-curve $-1 -1 -1 $-1 -0.5 0 0.5 0 -1 0 I I #
integer_attrib-name_attrib-gen-attrib $-1 -1 $-1 $-1 $239 2 1 1 1 1 1 1 1 1 1 1 1 1 1 0 1 1 1 @8 CUBIT_ID 7 #
straight-curve $-1 -1 -1 $-1 -0.5 0 -0.5 0 1 0 I I #
integer_attrib-name_attrib-gen-attrib $-1 -1 $-1 $-1 $246 2 1 1 1 1 1 1 1 1 1 1 1 1 1 0 1 1 1 @8 CUBIT_ID 11 #
straight-curve $-1 -1 -1 $-1 -0.5 0.5 0 0 0 -1 I I #
integer_attrib-name_attrib-gen-attrib $-1 -1 $-1 $-1 $250 2 1 1 1 1 1 1 1 1 1 1 1 1 1 0 1 1 1 @8 CUBIT_ID 8 #
point $-1 -1 -1 $-1 -0.5 0.5 -0.5 #
integer_attrib-name_attrib-gen-attrib $-1 -1 $-1 $-1 $253 2 1 1 1 1 1 1 1 1 1 1 1 1 1 0 1 1 1 @8 CUBIT_ID 3 #
point $-1 -1 -1 $-1 -0.5 0.5 0.5 #
integer_attrib-name_attrib-gen-attrib $-1 -1 $-1 $-1 $255 2 1 1 1 1 1 1 1 1 1 1 1 1 1 0 1 1 1 @8 CUBIT_ID 5 #
straight-curve $-1 -1 -1 $-1 0.5 0 -0.5 0 -1 0 I I #
End-of-ACIS-data 