DBRep_DrawableShape

CASCADE Topology V1, (c) Matra-Datavision
Locations 35
1
              1               0               0              -0 
              0               1               0              -0 
              0               0               1              -2 
1
              1               0               0              -0 
              0               1               0             4.5 
              0               0               1              -0 
1
              1               0               0              -6 
              0               1               0              -0 
              0               0               1              -0 
2  1 1 2 1 3 1 0
1
              1               0               0          -11.75 
              0               1               0          -11.75 
              0               0               1              -2 
1
              1               0               0               6 
              0               1               0            -4.5 
              0               0               1               2 
2  5 1 6 1 0
2  6 -1 5 -1 0
1
              1               0               0              -9 
              0               1               0              -9 
              0               0               1              -2 
1
              1               0               0               6 
              0               1               0            -4.5 
              0               0               1               2 
2  9 1 10 1 0
2  5 1 6 1 10 -1 9 -1 0
2  10 -1 9 -1 0
1
              1               0               0               0 
              0               1               0               0 
              0               0               1              -2 
1
              1               0               0               4 
              0               1               0               0 
              0               0               1               2 
1
              1               0               0              -0 
              0               1               0              -0 
              0               0               1              -2 
1
              1               0               0              -0 
              0               1               0             4.5 
              0               0               1              -0 
1
              1               0               0              -6 
              0               1               0              -0 
              0               0               1              -0 
2  14 1 15 1 16 1 17 1 18 1 0
2  15 -1 14 -1 0
1
              1               0               0               0 
              0               1               0               0 
              0               0               1              -2 
1
              1               0               0               8 
              0               1               0              -6 
              0               0               1               2 
1
              1               0               0              -0 
              0               1               0              -0 
              0               0               1              -2 
1
              1               0               0              -0 
              0               1               0             4.5 
              0               0               1              -0 
1
              1               0               0              -6 
              0               1               0              -0 
              0               0               1              -0 
2  21 1 22 1 23 1 24 1 25 1 0
2  22 -1 21 -1 0
1
              1               0               0              -0 
              0               1               0              -0 
              0               0               1              -2 
1
              1               0               0              -0 
              0               1               0             4.5 
              0               0               1              -0 
1
              1               0               0              -6 
              0               1               0              -0 
              0               0               1              -0 
2  28 1 29 1 30 1 0
2  14 1 15 1 0
2  9 1 10 1 15 -1 14 -1 0
2  21 1 22 1 0
2  9 1 10 1 22 -1 21 -1 0
Curve2ds 106
1 0 0 1 0 
1 0 0 1 0 
1 4 0 0 -1 
1 0 0 0 1 
1 0 -23.5 1 0 
1 0 0 1 0 
1 0 0 0 -1 
1 0 0 0 1 
1 0 0 0 1 
1 0 0 1 0 
1 0 0 1 0 
1 0 23.5 1 0 
1 4 0 0 1 
1 0 0 1 0 
1 4 0 0 1 
1 0 23.5 1 0 
1 4 0 0 -1 
1 23.5 0 0 1 
1 4 0 0 1 
1 0 18 1 0 
1 2.75 20.75 1 0 
1 4 0 0 -1 
1 0 0 0 1 
1 2.75 2.75 0 1 
1 4 0 0 1 
1 0 0 1 0 
1 2.75 2.75 1 0 
1 4 0 0 -1 
1 18 0 0 1 
1 20.75 2.75 0 1 
1 0 0 0 1 
1 0 23.5 1 0 
1 0 -23.5 1 0 
1 0 23.5 1 0 
1 0 0 0 -1 
1 23.5 0 0 1 
1 0 0 0 1 
1 0 18 1 0 
1 2.75 20.75 1 0 
1 0 0 0 -1 
1 0 0 0 1 
1 2.75 2.75 0 1 
1 0 0 0 1 
1 0 0 1 0 
1 2.75 2.75 1 0 
1 0 0 0 -1 
1 18 0 0 1 
1 20.75 2.75 0 1 
1 0 -18 1 0 
1 0 18 1 0 
1 0 -18 1 0 
1 0 0 1 0 
1 0 0 1 0 
1 0 0 1 0 
1 0 0 1 0 
1 0 18 1 0 
1 0 4 1 0 
2 0 0 1 0 -0 1 2.2000000000000002
1 6.2831853071795862 -0 0 1 
1 0 -0 0 1 
1 0 0 1 0 
2 0 0 1 0 -0 1 2.2000000000000002
1 0 4 1 0 
2 0 0 1 0 -0 1 2.2000000000000002
1 6.2831853071795862 -0 0 1 
1 0 -0 0 1 
1 0 0 1 0 
2 0 0 1 0 -0 1 2.2000000000000002
1 0 0 1 0 
1 0 0 1 0 
1 4 0 0 -1 
1 0 0 0 1 
1 0 -18 1 0 
1 0 0 1 0 
1 0 0 0 -1 
1 0 0 0 1 
1 0 0 0 1 
1 0 0 1 0 
1 0 18 1 0 
1 0 0 1 0 
1 4 0 0 1 
1 0 0 1 0 
1 0 18 1 0 
1 4 0 0 1 
1 18 0 0 1 
1 4 0 0 -1 
2 7 13.5 1 0 -0 1 2.2000000000000002
1 0 4 1 0 
1 0 4 1 0 
2 0 0 1 0 -0 1 2.2000000000000002
2 11 7.5 1 0 -0 1 2.1999999999999993
1 0 0 0 1 
1 0 18 1 0 
1 0 18 1 0 
1 0 -18 1 0 
1 18 0 0 1 
1 0 0 0 -1 
2 7 13.5 1 0 -0 1 2.2000000000000002
1 0 0 1 0 
1 0 0 1 0 
2 0 0 1 0 -0 1 2.2000000000000002
2 11 7.5 1 0 -0 1 2.1999999999999993
1 6.2831853071795862 -0 0 1 
1 0 -0 0 1 
1 6.2831853071795862 -0 0 1 
1 0 -0 0 1 
Curves 48
1 0 0 0 0 0 1 
1 0 0 4 -0 1 0 
1 0 23.5 0 0 0 1 
1 0 0 0 -0 1 0 
1 0 0 0 1 0 -0 
1 23.5 0 0 0 0 1 
1 0 0 4 1 0 -0 
1 0 23.5 4 1 0 -0 
1 23.5 0 4 0 1 0 
1 0 18 4 1 0 -0 
1 0 0 4 -0 1 0 
1 0 0 4 1 0 -0 
1 18 0 4 0 1 0 
1 0 23.5 0 1 0 -0 
1 23.5 23.5 0 0 0 1 
1 23.5 0 0 -0 1 0 
1 0 18 0 1 0 -0 
1 0 0 0 -0 1 0 
1 0 0 0 1 0 -0 
1 18 0 0 -0 1 0 
1 18 18 0 0 0 1 
1 0 18 0 0 0 1 
1 0 0 0 0 0 1 
1 18 0 0 0 0 1 
2 0 0 4 0 0 1 1 0 -0 -0 1 0 2.2000000000000002
1 2.2000000000000002 -5.3882679568184601e-16 0 0 0 1 
2 0 0 0 0 0 1 1 0 -0 -0 1 0 2.2000000000000002
2 0 0 4 0 0 1 1 0 -0 -0 1 0 2.2000000000000002
1 2.2000000000000002 -5.3882679568184601e-16 0 0 0 1 
2 0 0 0 0 0 1 1 0 -0 -0 1 0 2.2000000000000002
1 0 0 0 0 0 1 
1 0 0 4 -0 1 0 
1 0 18 0 0 0 1 
1 0 0 0 -0 1 0 
1 0 0 0 1 0 -0 
1 18 0 0 0 0 1 
1 0 0 4 1 0 -0 
1 0 18 4 1 0 -0 
1 18 0 4 0 1 0 
2 0 0 4 0 0 1 1 0 -0 -0 1 0 2.2000000000000002
2 0 0 4 0 0 1 1 0 -0 -0 1 0 2.2000000000000002
1 0 18 0 1 0 -0 
1 18 18 0 0 0 1 
1 18 0 0 -0 1 0 
2 0 0 0 0 0 1 1 0 -0 -0 1 0 2.2000000000000002
2 0 0 0 0 0 1 1 0 -0 -0 1 0 2.2000000000000002
1 2.2000000000000002 -5.3882679568184601e-16 0 0 0 1 
1 2.2000000000000002 -5.3882679568184601e-16 0 0 0 1 
Polygon3D 0
PolygonOnTriangulations 0
Surfaces 28
1 0 0 0 1 0 -0 0 0 1 0 -1 0 
1 0 0 0 -0 1 0 0 0 1 1 0 -0 
1 0 0 4 0 0 1 1 0 -0 -0 1 0 
1 0 23.5 0 -0 1 0 0 0 1 1 0 -0 
1 0 0 0 0 0 1 1 0 -0 -0 1 0 
1 23.5 0 0 1 0 -0 0 0 1 0 -1 0 
1 0 18 0 -0 1 0 0 0 1 1 0 -0 
1 0 0 4 0 0 1 1 0 -0 -0 1 0 
1 0 0 0 1 0 -0 0 0 1 0 -1 0 
1 0 0 0 -0 1 0 0 0 1 1 0 -0 
1 18 0 0 1 0 -0 0 0 1 0 -1 0 
1 0 0 0 0 0 1 1 0 -0 -0 1 0 
2 0 0 0 0 0 1 1 0 -0 -0 1 0 2.2000000000000002
1 0 0 4 0 0 1 1 0 -0 -0 1 0 
1 0 0 0 0 0 1 1 0 -0 -0 1 0 
2 0 0 0 0 0 1 1 0 -0 -0 1 0 2.2000000000000002
1 0 0 4 0 0 1 1 0 -0 -0 1 0 
1 0 0 0 0 0 1 1 0 -0 -0 1 0 
1 0 0 0 1 0 -0 0 0 1 0 -1 0 
1 0 0 0 -0 1 0 0 0 1 1 0 -0 
1 0 0 4 0 0 1 1 0 -0 -0 1 0 
1 0 18 0 -0 1 0 0 0 1 1 0 -0 
1 0 0 0 0 0 1 1 0 -0 -0 1 0 
1 18 0 0 1 0 -0 0 0 1 0 -1 0 
2 0 0 0 0 0 1 1 0 -0 -0 1 0 2.2000000000000002
2 0 0 0 0 0 1 1 0 -0 -0 1 0 2.2000000000000002
1 0 0 4 0 0 1 1 0 -0 -0 1 0 
1 0 0 0 0 0 1 1 0 -0 -0 1 0 
Triangulations 0

TShapes 143
Ve
1e-07
-5.75 -16.25 4
0 0

0101101
*
Ve
1e-07
-5.75 -16.25 0
0 0

0101101
*
Ed
 1e-07 1 1 0
1  1 0 0 4
2  1 1 0 0 4
2  2 2 0 0 4
0

0101000
-143 8 +142 8 *
Ve
1e-07
-5.75 7.25 4
0 0

0101101
*
Ed
 1e-07 1 1 0
1  2 0 0 23.5
2  3 1 0 0 23.5
2  4 3 0 0 23.5
0

0101000
-140 8 +143 8 *
Ve
1e-07
-5.75 7.25 0
0 0

0101101
*
Ed
 1e-07 1 1 0
1  3 0 0 4
2  5 1 0 0 4
2  6 4 0 0 4
0

0101000
-140 8 +138 8 *
Ed
 1e-07 1 1 0
1  4 0 0 23.5
2  7 1 0 0 23.5
2  8 5 0 0 23.5
0

0101000
-138 8 +142 8 *
Wi

0101000
-141 0 -139 0 +137 0 +136 0 *
Fa
0  1e-07 1 0

0111000
+135 0 *
Ve
1e-07
17.75 -16.25 0
0 0

0101101
*
Ed
 1e-07 1 1 0
1  5 0 0 23.5
2  9 2 0 0 23.5
2  10 5 0 0 23.5
0

0101000
-133 8 +142 8 *
Ve
1e-07
17.75 -16.25 4
0 0

0101101
*
Ed
 1e-07 1 1 0
1  6 0 0 4
2  11 6 0 0 4
2  12 2 0 0 4
0

0101000
-131 8 +133 8 *
Ed
 1e-07 1 1 0
1  7 0 0 23.5
2  13 2 0 0 23.5
2  14 3 0 0 23.5
0

0101000
-131 8 +143 8 *
Wi

0101000
-132 0 -130 0 +129 0 +141 0 *
Fa
0  1e-07 2 0

0111000
+128 0 *
Ve
1e-07
17.75 7.25 4
0 0

0101101
*
Ed
 1e-07 1 1 0
1  8 0 0 23.5
2  15 4 0 0 23.5
2  16 3 0 0 23.5
0

0101000
-126 8 +140 8 *
Ed
 1e-07 1 1 0
1  9 0 0 23.5
2  17 6 0 0 23.5
2  18 3 0 0 23.5
0

0101000
-126 8 +131 8 *
Wi

0101000
-139 7 -125 7 +129 7 +124 7 *
Ve
1e-07
15 4.5 4
0 0

0101101
*
Ve
1e-07
-3 4.5 4
0 0

0101101
*
Ed
 1e-07 1 1 0
1  10 0 0 18
2  19 7 0 0 18
2  20 8 0 0 18
2  21 3 12 0 18
0

0101000
-122 13 +121 13 *
Ve
1e-07
-3 -13.5 4
0 0

0101101
*
Ed
 1e-07 1 1 0
1  11 0 0 18
2  22 9 0 0 18
2  23 8 0 0 18
2  24 3 12 0 18
0

0101000
-121 13 +119 13 *
Ve
1e-07
15 -13.5 4
0 0

0101101
*
Ed
 1e-07 1 1 0
1  12 0 0 18
2  25 10 0 0 18
2  26 8 0 0 18
2  27 3 12 0 18
0

0101000
-117 13 +119 13 *
Ed
 1e-07 1 1 0
1  13 0 0 18
2  28 11 0 0 18
2  29 8 0 0 18
2  30 3 12 0 18
0

0101000
-122 13 +117 13 *
Wi

0101000
+120 11 +118 11 -116 11 -115 11 *
Fa
0  1e-07 3 7

0111000
+123 0 +114 0 *
Ve
1e-07
17.75 7.25 0
0 0

0101101
*
Ed
 1e-07 1 1 0
1  14 0 0 23.5
2  31 4 0 0 23.5
2  32 5 0 0 23.5
0

0101000
-112 8 +138 8 *
Ed
 1e-07 1 1 0
1  15 0 0 4
2  33 6 0 0 4
2  34 4 0 0 4
0

0101000
-126 8 +112 8 *
Wi

0101000
-111 0 -110 0 +125 0 +137 0 *
Fa
0  1e-07 4 0

0111000
+109 0 *
Ed
 1e-07 1 1 0
1  16 0 0 23.5
2  35 6 0 0 23.5
2  36 5 0 0 23.5
0

0101000
-112 8 +133 8 *
Wi

0101000
-136 7 -111 7 +132 7 +107 7 *
Ve
1e-07
15 4.5 0
0 0

0101101
*
Ve
1e-07
-3 4.5 0
0 0

0101101
*
Ed
 1e-07 1 1 0
1  17 0 0 18
2  37 7 0 0 18
2  38 12 0 0 18
2  39 5 12 0 18
0

0101000
-105 13 +104 13 *
Ve
1e-07
-3 -13.5 0
0 0

0101101
*
Ed
 1e-07 1 1 0
1  18 0 0 18
2  40 9 0 0 18
2  41 12 0 0 18
2  42 5 12 0 18
0

0101000
-104 13 +102 13 *
Ve
1e-07
15 -13.5 0
0 0

0101101
*
Ed
 1e-07 1 1 0
1  19 0 0 18
2  43 10 0 0 18
2  44 12 0 0 18
2  45 5 12 0 18
0

0101000
-100 13 +102 13 *
Ed
 1e-07 1 1 0
1  20 0 0 18
2  46 11 0 0 18
2  47 12 0 0 18
2  48 5 12 0 18
0

0101000
-105 13 +100 13 *
Wi

0101000
+103 11 +101 11 -99 11 -98 11 *
Fa
0  1e-07 5 7

0111000
+106 0 +97 0 *
Wi

0101000
-130 0 -124 0 +110 0 +107 0 *
Fa
0  1e-07 6 0

0101000
+95 0 *
Ed
 1e-07 1 1 0
1  21 0 0 4
2  49 11 0 0 4
2  50 7 0 0 4
0

0101000
-122 13 +105 13 *
Ed
 1e-07 1 1 0
1  22 0 0 4
2  51 9 0 0 4
2  52 7 0 0 4
0

0101000
-121 13 +104 13 *
Wi

0101000
-103 11 -93 11 +92 11 +120 11 *
Fa
0  1e-07 7 11

0111000
+91 0 *
Ed
 1e-07 1 1 0
1  23 0 0 4
2  53 9 0 0 4
2  54 10 0 0 4
0

0101000
-119 13 +102 13 *
Wi

0101000
-89 11 -118 11 +101 11 +92 11 *
Fa
0  1e-07 9 11

0111000
+88 0 *
Ed
 1e-07 1 1 0
1  24 0 0 4
2  55 11 0 0 4
2  56 10 0 0 4
0

0101000
-117 13 +100 13 *
Wi

0101000
-99 11 -86 11 +89 11 +116 11 *
Fa
0  1e-07 10 11

0111000
+85 0 *
Wi

0101000
-86 11 -115 11 +98 11 +93 11 *
Fa
0  1e-07 11 11

0111000
+83 0 *
Sh

0101000
-134 7 -127 7 +113 0 +108 7 -96 0 +94 7 -90 0 +87 0 +84 0 -82 0 
*
So

0100000
+81 0 *
Ve
1e-07
6.2 -5.38826795681846e-16 4
0 0

0101101
*
Ed
 1e-07 1 1 0
1  25 0 0 6.28318530717959
2  57 13 0 0 6.28318530717959
2  58 14 0 0 6.28318530717959
0

0101100
+79 20 -79 20 *
Ve
1e-07
6.2 -5.38826795681846e-16 0
0 0

0101101
*
Ed
 1e-07 1 1 0
1  26 0 0 4
3  59 60CN 13 0 0 4
0

0101000
-79 20 +77 20 *
Ed
 1e-07 1 1 0
1  27 0 0 6.28318530717959
2  61 13 0 0 6.28318530717959
2  62 15 0 0 6.28318530717959
0

0101100
+77 20 -77 20 *
Wi

0101000
-78 0 +76 0 +75 0 -76 0 *
Fa
0  1e-07 13 0

0111000
+74 0 *
Wi

0101000
+78 0 *
Fa
0  1e-07 14 0

0111000
+72 0 *
Wi

0101000
-75 0 *
Fa
0  1e-07 15 0

0111000
-70 0 *
Sh

0101100
+73 0 +71 0 -69 0 *
So

0100100
+68 0 *
Ve
1e-07
10.2 -6 4
0 0

0101101
*
Ed
 1e-07 1 1 0
1  28 0 0 6.28318530717959
2  63 16 0 0 6.28318530717959
2  64 17 0 0 6.28318530717959
0

0101100
+66 27 -66 27 *
Ve
1e-07
10.2 -6 0
0 0

0101101
*
Ed
 1e-07 1 1 0
1  29 0 0 4
3  65 66CN 16 0 0 4
0

0101000
-66 27 +64 27 *
Ed
 1e-07 1 1 0
1  30 0 0 6.28318530717959
2  67 16 0 0 6.28318530717959
2  68 18 0 0 6.28318530717959
0

0101100
+64 27 -64 27 *
Wi

0101000
-65 0 +63 0 +62 0 -63 0 *
Fa
0  1e-07 16 0

0111000
+61 0 *
Wi

0101000
+65 0 *
Fa
0  1e-07 17 0

0111000
+59 0 *
Wi

0101000
-62 0 *
Fa
0  1e-07 18 0

0111000
-57 0 *
Sh

0101100
+60 0 +58 0 -56 0 *
So

0100100
+55 0 *
Ve
1e-07
-3 -13.5 4
0 0

0101101
*
Ve
1e-07
-3 -13.5 0
0 0

0101101
*
Ed
 1e-07 1 1 0
1  31 0 0 4
2  69 19 0 0 4
2  70 20 0 0 4
0

0101000
-53 13 +52 13 *
Ve
1e-07
-3 4.5 4
0 0

0101101
*
Ed
 1e-07 1 1 0
1  32 0 0 18
2  71 19 0 0 18
2  72 21 0 0 18
0

0101000
-50 13 +53 13 *
Ve
1e-07
-3 4.5 0
0 0

0101101
*
Ed
 1e-07 1 1 0
1  33 0 0 4
2  73 19 0 0 4
2  74 22 0 0 4
0

0101000
-50 13 +48 13 *
Ed
 1e-07 1 1 0
1  34 0 0 18
2  75 19 0 0 18
2  76 23 0 0 18
0

0101000
-48 13 +52 13 *
Wi

0101000
-51 0 -49 0 +47 0 +46 0 *
Fa
0  1e-07 19 0

0111000
+45 0 *
Ve
1e-07
15 -13.5 0
0 0

0101101
*
Ed
 1e-07 1 1 0
1  35 0 0 18
2  77 20 0 0 18
2  78 23 0 0 18
0

0101000
-43 13 +52 13 *
Ve
1e-07
15 -13.5 4
0 0

0101101
*
Ed
 1e-07 1 1 0
1  36 0 0 4
2  79 20 0 0 4
2  80 24 0 0 4
0

0101000
-41 13 +43 13 *
Ed
 1e-07 1 1 0
1  37 0 0 18
2  81 20 0 0 18
2  82 21 0 0 18
0

0101000
-41 13 +53 13 *
Wi

0101000
-42 0 -40 0 +39 0 +51 0 *
Fa
0  1e-07 20 0

0111000
+38 0 *
Ve
1e-07
15 4.5 4
0 0

0101101
*
Ed
 1e-07 1 1 0
1  38 0 0 18
2  83 21 0 0 18
2  84 22 0 0 18
0

0101000
-36 13 +50 13 *
Ed
 1e-07 1 1 0
1  39 0 0 18
2  85 21 0 0 18
2  86 24 0 0 18
0

0101000
-36 13 +41 13 *
Wi

0101000
-49 11 -35 11 +39 11 +34 11 *
Ve
1e-07
6.2 -5.38826795681846e-16 4
0 0

0101101
*
Ed
 1e-07 1 1 0
1  40 0 0 6.28318530717959
2  87 21 33 0 6.28318530717959
2  88 25 0 0 6.28318530717959
0

0101100
+32 20 -32 20 *
Wi

0101000
-31 32 *
Ve
1e-07
10.2 -6 4
0 0

0101101
*
Ed
 1e-07 1 1 0
1  41 0 0 6.28318530717959
2  89 26 0 0 6.28318530717959
2  90 27 0 0 6.28318530717959
2  91 21 35 0 6.28318530717959
0

0101100
+29 27 -29 27 *
Wi

0101000
-28 34 *
Fa
0  1e-07 21 11

0111000
+33 0 +30 0 +27 0 *
Ve
1e-07
15 4.5 0
0 0

0101101
*
Ed
 1e-07 1 1 0
1  42 0 0 18
2  92 22 0 0 18
2  93 23 0 0 18
0

0101000
-25 13 +48 13 *
Ed
 1e-07 1 1 0
1  43 0 0 4
2  94 22 0 0 4
2  95 24 0 0 4
0

0101000
-36 13 +25 13 *
Wi

0101000
-24 0 -23 0 +35 0 +47 0 *
Fa
0  1e-07 22 0

0111000
+22 0 *
Ed
 1e-07 1 1 0
1  44 0 0 18
2  96 23 0 0 18
2  97 24 0 0 18
0

0101000
-25 13 +43 13 *
Wi

0101000
-46 11 -24 11 +42 11 +20 11 *
Ve
1e-07
6.2 -5.38826795681846e-16 0
0 0

0101101
*
Ed
 1e-07 1 1 0
1  45 0 0 6.28318530717959
2  98 23 33 0 6.28318530717959
2  99 25 0 0 6.28318530717959
0

0101100
+18 20 -18 20 *
Wi

0101000
-17 32 *
Ve
1e-07
10.2 -6 0
0 0

0101101
*
Ed
 1e-07 1 1 0
1  46 0 0 6.28318530717959
2  100 26 0 0 6.28318530717959
2  101 28 0 0 6.28318530717959
2  102 23 35 0 6.28318530717959
0

0101100
+15 27 -15 27 *
Wi

0101000
-14 34 *
Fa
0  1e-07 23 11

0111000
+19 0 +16 0 +13 0 *
Wi

0101000
-40 0 -34 0 +23 0 +20 0 *
Fa
0  1e-07 24 0

0101000
+11 0 *
Ed
 1e-07 1 1 0
1  47 0 0 4
3  103 104CN 25 0 0 4
0

0101000
-32 20 +18 20 *
Wi

0101000
+9 32 +17 32 -9 32 -31 32 *
Fa
0  1e-07 25 32

0111000
+8 0 *
Ed
 1e-07 1 1 0
1  48 0 0 4
3  105 106CN 26 0 0 4
0

0101000
-29 27 +15 27 *
Wi

0101000
+6 34 +14 34 -6 34 -28 34 *
Fa
0  1e-07 26 34

0111000
+5 0 *
Sh

0101000
-44 11 -37 11 +26 0 +21 11 -12 0 +10 11 -7 0 -4 0 *
So

0100000
+3 0 *
Co

1100000
+80 4 +67 19 +54 26 +2 31 *

+1 0 
CGM_ATTRIB 9 ENTITY_ID 0 3 46 -2147483648 -1 0 
*
CGM_ATTRIB 9 ENTITY_ID 0 3 45 -2147483648 -1 0 
*
CGM_ATTRIB 9 ENTITY_ID 0 3 67 -2147483648 -1 0 
*
CGM_ATTRIB 9 ENTITY_ID 0 3 47 -2147483648 -1 0 
*
CGM_ATTRIB 9 ENTITY_ID 0 3 68 -2147483648 -1 0 
*
CGM_ATTRIB 9 ENTITY_ID 0 3 48 -2147483648 -1 0 
*
CGM_ATTRIB 9 ENTITY_ID 0 3 69 -2147483648 -1 0 
*
CGM_ATTRIB 9 ENTITY_ID 0 3 70 -2147483648 -1 0 
*
*
CGM_ATTRIB 11 ENTITY_NAME 1 15 mat_block_side1 0 0 
CGM_ATTRIB 9 ENTITY_ID 0 3 37 -2147483648 -1 0 
*
CGM_ATTRIB 9 ENTITY_ID 0 3 49 -2147483648 -1 0 
*
CGM_ATTRIB 9 ENTITY_ID 0 3 71 -2147483648 -1 0 
*
CGM_ATTRIB 9 ENTITY_ID 0 3 50 -2147483648 -1 0 
*
CGM_ATTRIB 9 ENTITY_ID 0 3 72 -2147483648 -1 0 
*
CGM_ATTRIB 9 ENTITY_ID 0 3 73 -2147483648 -1 0 
*
*
CGM_ATTRIB 11 ENTITY_NAME 1 15 mat_block_side2 0 0 
CGM_ATTRIB 9 ENTITY_ID 0 3 38 -2147483648 -1 0 
*
CGM_ATTRIB 9 ENTITY_ID 0 3 51 -2147483648 -1 0 
*
CGM_ATTRIB 9 ENTITY_ID 0 3 75 -2147483648 -1 0 
*
CGM_ATTRIB 9 ENTITY_ID 0 3 74 -2147483648 -1 0 
*
*
CGM_ATTRIB 9 ENTITY_ID 0 3 53 -2147483648 -1 0 
*
CGM_ATTRIB 9 ENTITY_ID 0 3 52 -2147483648 -1 0 
*
CGM_ATTRIB 9 ENTITY_ID 0 3 76 -2147483648 -1 0 
*
CGM_ATTRIB 9 ENTITY_ID 0 3 55 -2147483648 -1 0 
*
CGM_ATTRIB 9 ENTITY_ID 0 3 79 -2147483648 -1 0 
*
CGM_ATTRIB 9 ENTITY_ID 0 3 54 -2147483648 -1 0 
*
CGM_ATTRIB 9 ENTITY_ID 0 3 78 -2147483648 -1 0 
*
CGM_ATTRIB 9 ENTITY_ID 0 3 77 -2147483648 -1 0 
*
*
CGM_ATTRIB 11 ENTITY_NAME 1 13 mat_block_top 0 0 
CGM_ATTRIB 9 ENTITY_ID 0 3 30 -2147483648 -1 0 
*
CGM_ATTRIB 9 ENTITY_ID 0 3 56 -2147483648 -1 0 
*
CGM_ATTRIB 9 ENTITY_ID 0 3 80 -2147483648 -1 0 
*
CGM_ATTRIB 9 ENTITY_ID 0 3 81 -2147483648 -1 0 
*
*
CGM_ATTRIB 11 ENTITY_NAME 1 15 mat_block_side3 0 0 
CGM_ATTRIB 9 ENTITY_ID 0 3 39 -2147483648 -1 0 
*
CGM_ATTRIB 9 ENTITY_ID 0 3 82 -2147483648 -1 0 
*
*
CGM_ATTRIB 9 ENTITY_ID 0 3 58 -2147483648 -1 0 
*
CGM_ATTRIB 9 ENTITY_ID 0 3 57 -2147483648 -1 0 
*
CGM_ATTRIB 9 ENTITY_ID 0 3 83 -2147483648 -1 0 
*
CGM_ATTRIB 9 ENTITY_ID 0 3 59 -2147483648 -1 0 
*
CGM_ATTRIB 9 ENTITY_ID 0 3 84 -2147483648 -1 0 
*
CGM_ATTRIB 9 ENTITY_ID 0 3 60 -2147483648 -1 0 
*
CGM_ATTRIB 9 ENTITY_ID 0 3 85 -2147483648 -1 0 
*
CGM_ATTRIB 9 ENTITY_ID 0 3 86 -2147483648 -1 0 
*
*
CGM_ATTRIB 11 ENTITY_NAME 1 13 mat_block_bot 0 0 
CGM_ATTRIB 9 ENTITY_ID 0 3 29 -2147483648 -1 0 
*
*
CGM_ATTRIB 11 ENTITY_NAME 1 15 mat_block_side4 0 0 
CGM_ATTRIB 9 ENTITY_ID 0 3 40 -2147483648 -1 0 
*
CGM_ATTRIB 9 ENTITY_ID 0 3 87 -2147483648 -1 0 
*
CGM_ATTRIB 9 ENTITY_ID 0 3 88 -2147483648 -1 0 
*
*
CGM_ATTRIB 11 ENTITY_NAME 1 16 mat_block_side_5 0 0 
CGM_ATTRIB 9 ENTITY_ID 0 3 41 -2147483648 -1 0 
*
CGM_ATTRIB 9 ENTITY_ID 0 3 89 -2147483648 -1 0 
*
*
CGM_ATTRIB 11 ENTITY_NAME 1 16 mat_block_side_6 0 0 
CGM_ATTRIB 9 ENTITY_ID 0 3 42 -2147483648 -1 0 
*
CGM_ATTRIB 9 ENTITY_ID 0 3 90 -2147483648 -1 0 
*
*
CGM_ATTRIB 11 ENTITY_NAME 1 16 mat_block_side_7 0 0 
CGM_ATTRIB 9 ENTITY_ID 0 3 43 -2147483648 -1 0 
*
*
CGM_ATTRIB 11 ENTITY_NAME 1 16 mat_block_side_8 0 0 
CGM_ATTRIB 9 ENTITY_ID 0 3 44 -2147483648 -1 0 
*
*
CGM_ATTRIB 9 ENTITY_ID 0 3 6 -2147483648 -1 0 
CGM_ATTRIB 13 #SINGLELUMP%0 2 11 ENTITY_NAME 9 mat_block 0 0 
CGM_ATTRIB 13 #SINGLELUMP%1 1 9 ENTITY_ID 3 6 -2147483648 -1 0 
*
CGM_ATTRIB 9 ENTITY_ID 0 3 61 -2147483648 -1 0 
*
CGM_ATTRIB 9 ENTITY_ID 0 3 91 -2147483648 -1 0 
*
CGM_ATTRIB 9 ENTITY_ID 0 3 62 -2147483648 -1 0 
*
CGM_ATTRIB 9 ENTITY_ID 0 3 92 -2147483648 -1 0 
*
CGM_ATTRIB 9 ENTITY_ID 0 3 93 -2147483648 -1 0 
*
*
CGM_ATTRIB 11 ENTITY_NAME 2 17 pwr_rf_r_01_side1 19 pwr_rf_r_01_side1@B 0 0 
CGM_ATTRIB 9 ENTITY_ID 0 3 45 -2147483648 -1 0 
*
*
CGM_ATTRIB 11 ENTITY_NAME 2 15 pwr_rf_r_01_top 17 pwr_rf_r_01_top@B 0 0 
CGM_ATTRIB 9 ENTITY_ID 0 3 46 -2147483648 -1 0 
*
*
CGM_ATTRIB 11 ENTITY_NAME 2 15 pwr_rf_r_01_bot 17 pwr_rf_r_01_bot@B 0 0 
CGM_ATTRIB 9 ENTITY_ID 0 3 47 -2147483648 -1 0 
*
*
CGM_ATTRIB 9 ENTITY_ID 0 3 8 -2147483648 -1 0 
CGM_ATTRIB 13 #SINGLELUMP%0 3 11 ENTITY_NAME 7 _xp1_@A 13 pwr_rf_r_01@B 0 0 
CGM_ATTRIB 13 #SINGLELUMP%1 1 9 ENTITY_ID 3 8 -2147483648 -1 0 
*
CGM_ATTRIB 9 ENTITY_ID 0 3 63 -2147483648 -1 0 
*
CGM_ATTRIB 9 ENTITY_ID 0 3 94 -2147483648 -1 0 
*
CGM_ATTRIB 9 ENTITY_ID 0 3 64 -2147483648 -1 0 
*
CGM_ATTRIB 9 ENTITY_ID 0 3 95 -2147483648 -1 0 
*
CGM_ATTRIB 9 ENTITY_ID 0 3 96 -2147483648 -1 0 
*
*
CGM_ATTRIB 11 ENTITY_NAME 2 19 pwr_rf_r_01_side1@A 19 pwr_rf_r_01_side1@C 0 0 
CGM_ATTRIB 9 ENTITY_ID 0 3 48 -2147483648 -1 0 
*
*
CGM_ATTRIB 11 ENTITY_NAME 2 17 pwr_rf_r_01_top@A 17 pwr_rf_r_01_top@C 0 0 
CGM_ATTRIB 9 ENTITY_ID 0 3 49 -2147483648 -1 0 
*
*
CGM_ATTRIB 11 ENTITY_NAME 2 17 pwr_rf_r_01_bot@A 17 pwr_rf_r_01_bot@C 0 0 
CGM_ATTRIB 9 ENTITY_ID 0 3 50 -2147483648 -1 0 
*
*
CGM_ATTRIB 9 ENTITY_ID 0 3 9 -2147483648 -1 0 
CGM_ATTRIB 13 #SINGLELUMP%0 3 11 ENTITY_NAME 7 _xp2_@A 13 pwr_rf_r_01@C 0 0 
CGM_ATTRIB 13 #SINGLELUMP%1 1 9 ENTITY_ID 3 9 -2147483648 -1 0 
*
CGM_ATTRIB 9 ENTITY_ID 0 3 98 -2147483648 -1 0 
*
CGM_ATTRIB 9 ENTITY_ID 0 3 97 -2147483648 -1 0 
*
CGM_ATTRIB 9 ENTITY_ID 0 3 145 -2147483648 -1 0 
*
CGM_ATTRIB 9 ENTITY_ID 0 3 99 -2147483648 -1 0 
*
CGM_ATTRIB 9 ENTITY_ID 0 3 146 -2147483648 -1 0 
*
CGM_ATTRIB 9 ENTITY_ID 0 3 100 -2147483648 -1 0 
*
CGM_ATTRIB 9 ENTITY_ID 0 3 147 -2147483648 -1 0 
*
CGM_ATTRIB 9 ENTITY_ID 0 3 148 -2147483648 -1 0 
*
*
CGM_ATTRIB 9 ENTITY_ID 0 3 75 -2147483648 -1 0 
*
CGM_ATTRIB 9 ENTITY_ID 0 3 101 -2147483648 -1 0 
*
CGM_ATTRIB 9 ENTITY_ID 0 3 149 -2147483648 -1 0 
*
CGM_ATTRIB 9 ENTITY_ID 0 3 102 -2147483648 -1 0 
*
CGM_ATTRIB 9 ENTITY_ID 0 3 150 -2147483648 -1 0 
*
CGM_ATTRIB 9 ENTITY_ID 0 3 151 -2147483648 -1 0 
*
*
CGM_ATTRIB 9 ENTITY_ID 0 3 76 -2147483648 -1 0 
*
CGM_ATTRIB 9 ENTITY_ID 0 3 103 -2147483648 -1 0 
*
CGM_ATTRIB 9 ENTITY_ID 0 3 153 -2147483648 -1 0 
*
CGM_ATTRIB 9 ENTITY_ID 0 3 152 -2147483648 -1 0 
*
*
CGM_ATTRIB 9 ENTITY_ID 0 3 104 -2147483648 -1 0 
*
CGM_ATTRIB 9 ENTITY_ID 0 3 154 -2147483648 -1 0 
*
*
CGM_ATTRIB 9 ENTITY_ID 0 3 105 -2147483648 -1 0 
*
CGM_ATTRIB 9 ENTITY_ID 0 3 155 -2147483648 -1 0 
*
*
CGM_ATTRIB 11 ENTITY_NAME 3 15 mat_coolant_top 17 mat_coolant_top@A 17 mat_coolant_top@B 0 0 
CGM_ATTRIB 9 ENTITY_ID 0 3 67 -2147483648 -1 0 
*
CGM_ATTRIB 9 ENTITY_ID 0 3 106 -2147483648 -1 0 
*
CGM_ATTRIB 9 ENTITY_ID 0 3 156 -2147483648 -1 0 
*
CGM_ATTRIB 9 ENTITY_ID 0 3 157 -2147483648 -1 0 
*
*
CGM_ATTRIB 9 ENTITY_ID 0 3 77 -2147483648 -1 0 
*
CGM_ATTRIB 9 ENTITY_ID 0 3 158 -2147483648 -1 0 
*
*
CGM_ATTRIB 9 ENTITY_ID 0 3 107 -2147483648 -1 0 
*
CGM_ATTRIB 9 ENTITY_ID 0 3 159 -2147483648 -1 0 
*
*
CGM_ATTRIB 9 ENTITY_ID 0 3 108 -2147483648 -1 0 
*
CGM_ATTRIB 9 ENTITY_ID 0 3 160 -2147483648 -1 0 
*
*
CGM_ATTRIB 11 ENTITY_NAME 3 15 mat_coolant_bot 17 mat_coolant_bot@A 17 mat_coolant_bot@B 0 0 
CGM_ATTRIB 9 ENTITY_ID 0 3 69 -2147483648 -1 0 
*
*
CGM_ATTRIB 9 ENTITY_ID 0 3 78 -2147483648 -1 0 
*
CGM_ATTRIB 9 ENTITY_ID 0 3 161 -2147483648 -1 0 
*
*
CGM_ATTRIB 9 ENTITY_ID 0 3 79 -2147483648 -1 0 
*
CGM_ATTRIB 9 ENTITY_ID 0 3 162 -2147483648 -1 0 
*
*
CGM_ATTRIB 9 ENTITY_ID 0 3 80 -2147483648 -1 0 
*
*
CGM_ATTRIB 9 ENTITY_ID 0 3 12 -2147483648 -1 0 
CGM_ATTRIB 13 #SINGLELUMP%0 2 11 ENTITY_NAME 13 mat_coolant@B 0 0 
CGM_ATTRIB 13 #SINGLELUMP%1 1 9 ENTITY_ID 3 12 -2147483648 -1 0 
*
*