2100 0 1 0           
10 Cubit 13.1 17 ACIS 21.0.1 Linux 24 Mon Jun  3 13:45:33 2013 
1 9.9999999999999995e-07 1e-10 
body $1 -1 -1 $-1 $2 $-1 $3 T -2.5980759085148302 0.50000017484384118 0 2.5980759085148293 3.0000000000000018 0 #
integer_attrib-name_attrib-gen-attrib $-1 -1 $-1 $-1 $0 2 1 1 1 1 1 1 1 1 1 1 1 1 1 0 1 1 1 @8 CUBIT_ID 7 #
lump $4 -1 -1 $-1 $-1 $5 $0 T -2.5980759085148302 0.50000017484384118 0 2.5980759085148293 3.0000000000000018 0 #
transform $-1 -1 1 0 0 0 1 0 0 0 1 0 0 0 1 no_rotate no_reflect no_shear #
integer_attrib-name_attrib-gen-attrib $-1 -1 $-1 $-1 $2 2 1 1 1 1 1 1 1 1 1 1 1 1 1 0 1 1 1 @8 CUBIT_ID 7 #
shell $-1 -1 -1 $-1 $-1 $-1 $6 $-1 $2 T -2.5980759085148302 0.50000017484384118 0 2.5980759085148293 3.0000000000000018 0 #
face $7 -1 -1 $-1 $-1 $8 $5 $-1 $9 reversed double out T -2.5980759085148302 0.50000017484384118 0 2.5980759085148293 3.0000000000000018 0 F #
integer_attrib-name_attrib-gen-attrib $-1 -1 $-1 $-1 $6 2 1 1 1 1 1 1 1 1 1 1 1 1 1 0 1 1 1 @8 CUBIT_ID 7 #
loop $-1 -1 -1 $-1 $-1 $10 $6 T -2.5980759085148302 0.50000017484384118 0 2.5980759085148293 3.0000000000000018 0 unknown #
plane-surface $-1 -1 -1 $-1 -6.6613381477509392e-16 1.6675566685585135 0 0 0 1 1 0 0 forward_v I I I I #
coedge $-1 -1 -1 $-1 $11 $12 $-1 $13 reversed $8 $-1 #
coedge $-1 -1 -1 $-1 $14 $10 $-1 $15 reversed $8 $-1 #
coedge $-1 -1 -1 $-1 $10 $14 $-1 $16 reversed $8 $-1 #
edge $17 -1 -1 $-1 $18 0 $19 2.0943946986086139 $10 $20 forward @7 unknown T -2.5980759085148302 1.5000005245315258 0 2.5980759085148288 3.0000000000000018 0 #
coedge $-1 -1 -1 $-1 $12 $11 $-1 $21 reversed $8 $-1 #
edge $22 -1 -1 $-1 $23 0 $18 2.0000000000000013 $11 $24 forward @7 unknown T 0.86602530283827606 0.50000017484384174 0 2.5980759085148293 1.5000005245315262 0 #
edge $25 -1 -1 $-1 $19 0 $26 2.0000000000000013 $12 $27 forward @7 unknown T -2.5980759085148288 0.50000017484384141 0 -0.86602530283827561 1.5000005245315258 0 #
integer_attrib-name_attrib-gen-attrib $-1 -1 $-1 $-1 $13 2 1 1 1 1 1 1 1 1 1 1 1 1 1 0 1 1 1 @8 CUBIT_ID 14 #
vertex $28 -1 -1 $-1 $13 $29 #
vertex $30 -1 -1 $-1 $13 $31 #
ellipse-curve $-1 -1 -1 $-1 -1.7763568394002505e-15 -1.5543122344752192e-15 0 0 0 1 2.5980759085148306 1.5000005245315273 0 1 I I #
edge $32 -1 -1 $-1 $26 0 $23 2.0943946986086157 $14 $33 forward @7 unknown T -0.86602530283827606 0.50000017484384118 0 0.86602530283827606 0.99999999999999956 0 #
integer_attrib-name_attrib-gen-attrib $-1 -1 $-1 $-1 $15 2 1 1 1 1 1 1 1 1 1 1 1 1 1 0 1 1 1 @8 CUBIT_ID 11 #
vertex $34 -1 -1 $-1 $15 $35 #
straight-curve $-1 -1 -1 $-1 0.86602530283827606 0.50000017484384174 0 0.86602530283827606 0.50000017484384185 0 I I #
integer_attrib-name_attrib-gen-attrib $-1 -1 $-1 $-1 $16 2 1 1 1 1 1 1 1 1 1 1 1 1 1 0 1 1 1 @8 CUBIT_ID 10 #
vertex $36 -1 -1 $-1 $21 $37 #
straight-curve $-1 -1 -1 $-1 -2.5980759085148288 1.5000005245315258 0 0.86602530283827606 -0.50000017484384185 0 I I #
integer_attrib-name_attrib-gen-attrib $-1 -1 $-1 $-1 $18 2 1 1 1 1 1 1 1 1 1 1 1 1 1 0 1 1 1 @8 CUBIT_ID 27 #
point $-1 -1 -1 $-1 2.5980759085148288 1.5000005245315258 0 #
integer_attrib-name_attrib-gen-attrib $-1 -1 $-1 $-1 $19 2 1 1 1 1 1 1 1 1 1 1 1 1 1 0 1 1 1 @8 CUBIT_ID 25 #
point $-1 -1 -1 $-1 -2.5980759085148288 1.5000005245315258 0 #
integer_attrib-name_attrib-gen-attrib $-1 -1 $-1 $-1 $21 2 1 1 1 1 1 1 1 1 1 1 1 1 1 0 1 1 1 @8 CUBIT_ID 13 #
ellipse-curve $-1 -1 -1 $-1 -5.5511151231257827e-16 0 0 0 0 -1 -0.8660253028382755 0.50000017484384174 0 1 I I #
integer_attrib-name_attrib-gen-attrib $-1 -1 $-1 $-1 $23 2 1 1 1 1 1 1 1 1 1 1 1 1 1 0 1 1 1 @8 CUBIT_ID 21 #
point $-1 -1 -1 $-1 0.86602530283827606 0.50000017484384174 0 #
integer_attrib-name_attrib-gen-attrib $-1 -1 $-1 $-1 $26 2 1 1 1 1 1 1 1 1 1 1 1 1 1 0 1 1 1 @8 CUBIT_ID 23 #
point $-1 -1 -1 $-1 -0.86602530283827606 0.50000017484384174 0 #
End-of-ACIS-data 