solid brick
facet normal 0.0e+0 0.0e+0 1.0e+0
    outer loop
        vertex 0.0e+0 0.0e+0 0.5e+0
        vertex 0.5e+0 0.0e+0 0.5e+0
        vertex 0.0e+0 0.5e+0 0.5e+0
    endloop
endfacet
facet normal 0.0e+0 0.0e+0 1.0e+0
    outer loop
        vertex 0.5e+0 0.0e+0 0.5e+0
        vertex 0.5e+0 0.5e+0 0.5e+0
        vertex 0.0e+0 0.5e+0 0.5e+0
    endloop
endfacet
facet normal 0.0e+0 -1.0e+0 0.0e+0
    outer loop
        vertex 0.0e+0 0.0e+0 0.0e+0
        vertex 0.5e+0 0.0e+0 0.0e+0
        vertex 0.0e+0 0.0e+0 0.5e+0
    endloop
endfacet
facet normal 0.0e+0 -1.0e+0 0.0e+0
    outer loop
        vertex 0.5e+0 0.0e+0 0.0e+0
        vertex 0.5e+0 0.0e+0 0.5e+0
        vertex 0.0e+0 0.0e+0 0.5e+0
    endloop
endfacet
facet normal 0.0e+0 1.0e+0 0.0e+0
    outer loop
        vertex 0.0e+0 0.5e+0 0.0e+0
        vertex 0.0e+0 0.5e+0 0.5e+0
        vertex 0.5e+0 0.5e+0 0.0e+0
    endloop
endfacet
facet normal 0.0e+0 1.0e+0 0.0e+0
    outer loop
        vertex 0.5e+0 0.5e+0 0.0e+0
        vertex 0.0e+0 0.5e+0 0.5e+0
        vertex 0.5e+0 0.5e+0 0.5e+0
    endloop
endfacet
facet normal 1.0e+0 0.0e+0 0.0e+0
    outer loop
        vertex 0.5e+0 0.0e+0 0.0e+0
        vertex 0.5e+0 0.5e+0 0.0e+0
        vertex 0.5e+0 0.0e+0 0.5e+0
    endloop
endfacet
facet normal 1.0e+0 0.0e+0 0.0e+0
    outer loop
        vertex 0.5e+0 0.5e+0 0.0e+0
        vertex 0.5e+0 0.5e+0 0.5e+0
        vertex 0.5e+0 0.0e+0 0.5e+0
    endloop
endfacet
facet normal -1.0e+0 0.0e+0 0.0e+0
    outer loop
        vertex 0.0e+0 0.0e+0 0.0e+0
        vertex 0.0e+0 0.0e+0 0.5e+0
        vertex 0.0e+0 0.5e+0 0.0e+0
    endloop
endfacet
facet normal -1.0e+0 0.0e+0 0.0e+0
    outer loop
        vertex 0.0e+0 0.5e+0 0.0e+0
        vertex 0.0e+0 0.0e+0 0.5e+0
        vertex 0.0e+0 0.5e+0 0.5e+0
    endloop
endfacet
facet normal 0.0e+0 0.0e+0 -1.0e+0
    outer loop
        vertex 0.0e+0 0.0e+0 0.0e+0
        vertex 0.0e+0 0.5e+0 0.0e+0
        vertex 0.5e+0 0.0e+0 0.0e+0
    endloop
endfacet
facet normal 0.0e+0 0.0e+0 -1.0e+0
    outer loop
        vertex 0.5e+0 0.0e+0 0.0e+0
        vertex 0.0e+0 0.5e+0 0.0e+0
        vertex 0.5e+0 0.5e+0 0.0e+0
    endloop
endfacet
endsolid brick
