1600 0 1 0           
10 Cubit 12.2 17 ACIS 19.0.2 Linux 24 Thu Feb 17 17:11:22 2011 
1 9.9999999999999995e-07 1e-10 
body $1 -1 -1 $-1 $2 $-1 $-1 T -1 -0.86602540378443871 -0.5 0.50000000000000011 0.8660254037844386 0.5 #
integer_attrib-name_attrib-gen-attrib $-1 -1 $-1 $-1 $0 2 1 1 1 1 1 1 1 1 1 1 1 1 1 0 1 1 1 @8 CUBIT_ID 1 #
lump $3 -1 -1 $-1 $-1 $4 $0 T -1 -0.86602540378443871 -0.5 0.50000000000000011 0.8660254037844386 0.5 #
integer_attrib-name_attrib-gen-attrib $-1 -1 $-1 $-1 $2 2 1 1 1 1 1 1 1 1 1 1 1 1 1 0 1 1 1 @8 CUBIT_ID 1 #
shell $-1 -1 -1 $-1 $-1 $-1 $5 $-1 $2 T -1 -0.86602540378443871 -0.5 0.50000000000000011 0.8660254037844386 0.5 #
face $6 -1 -1 $-1 $7 $8 $4 $-1 $9 reversed single T -1 -0.86602540378443871 -0.5 0.50000000000000011 0.8660254037844386 -0.5 F #
integer_attrib-name_attrib-gen-attrib $-1 -1 $-1 $-1 $5 2 1 1 1 1 1 1 1 1 1 1 1 1 1 0 1 1 1 @8 CUBIT_ID 1 #
face $10 -1 -1 $-1 $11 $12 $4 $-1 $13 reversed single T -1 -0.86602540378443871 -0.5 0.50000000000000011 2.2204460492503131e-16 0.5 F #
loop $-1 -1 -1 $-1 $-1 $14 $5 T -1 -0.86602540378443871 -0.5 0.50000000000000011 0.8660254037844386 -0.5 unknown #
plane-surface $-1 -1 -1 $-1 0 0 -0.5 0 0 1 1 0 0 forward_v I I I I #
integer_attrib-name_attrib-gen-attrib $-1 -1 $-1 $-1 $7 2 1 1 1 1 1 1 1 1 1 1 1 1 1 0 1 1 1 @8 CUBIT_ID 2 #
face $15 -1 -1 $-1 $16 $17 $4 $-1 $18 reversed single T -1 0 -0.5 0.5 0.8660254037844386 0.5 F #
loop $-1 -1 -1 $-1 $-1 $19 $7 T -1 -0.86602540378443871 -0.5 0.50000000000000011 2.2204460492503131e-16 0.5 unknown #
plane-surface $-1 -1 -1 $-1 0.25 -0.4330127018922193 0 0.44721359549995804 0.7745966692414834 -0.44721359549995793 -0.70710678118654746 0 -0.70710678118654768 forward_v I I I I #
coedge $-1 -1 -1 $-1 $20 $21 $22 $23 forward $8 $-1 #
integer_attrib-name_attrib-gen-attrib $-1 -1 $-1 $-1 $11 2 1 1 1 1 1 1 1 1 1 1 1 1 1 0 1 1 1 @8 CUBIT_ID 3 #
face $24 -1 -1 $-1 $-1 $25 $4 $-1 $26 reversed single T 0 -0.8660254037844386 -0.5 0.5 0.8660254037844386 0.5 F #
loop $-1 -1 -1 $-1 $-1 $27 $11 T -1 0 -0.5 0.5 0.8660254037844386 0.5 unknown #
plane-surface $-1 -1 -1 $-1 -0.5 5.5511151231257827e-17 0 0.44721359549995787 -0.7745966692414834 -0.44721359549995793 -0.70710678118654757 0 -0.70710678118654757 forward_v I I I I #
coedge $-1 -1 -1 $-1 $28 $29 $30 $31 forward $12 $-1 #
coedge $-1 -1 -1 $-1 $21 $14 $28 $32 forward $8 $-1 #
coedge $-1 -1 -1 $-1 $14 $20 $33 $34 forward $8 $-1 #
coedge $-1 -1 -1 $-1 $35 $36 $14 $23 reversed $25 $-1 #
edge $37 -1 -1 $-1 $38 -0.8660254037844386 $39 0.8660254037844386 $22 $40 forward @7 unknown T 0.5 -0.8660254037844386 -0.5 0.5 0.8660254037844386 -0.5 #
integer_attrib-name_attrib-gen-attrib $-1 -1 $-1 $-1 $16 2 1 1 1 1 1 1 1 1 1 1 1 1 1 0 1 1 1 @8 CUBIT_ID 4 #
loop $-1 -1 -1 $-1 $-1 $36 $16 T 0 -0.8660254037844386 -0.5 0.5 0.8660254037844386 0.5 unknown #
plane-surface $-1 -1 -1 $-1 0.25 0.4330127018922193 0 -0.89442719099991586 -0 -0.44721359549995793 -0.44721359549995798 0 0.89442719099991597 forward_v I I I I #
coedge $-1 -1 -1 $-1 $33 $30 $35 $41 forward $17 $-1 #
coedge $-1 -1 -1 $-1 $29 $19 $20 $32 reversed $12 $-1 #
coedge $-1 -1 -1 $-1 $19 $28 $36 $42 reversed $12 $-1 #
coedge $-1 -1 -1 $-1 $27 $33 $19 $31 reversed $17 $-1 #
edge $43 -1 -1 $-1 $44 -0.70710678118654746 $45 0.70710678118654746 $30 $46 forward @7 unknown T -1 0 -0.5 0 1.224646799147353e-16 0.5 #
edge $47 -1 -1 $-1 $39 -0.86602540378443871 $45 0.86602540378443871 $28 $48 forward @7 unknown T -1 -0.86602540378443871 -0.5 0.50000000000000011 2.2204460492503131e-16 -0.5 #
coedge $-1 -1 -1 $-1 $30 $27 $21 $34 reversed $17 $-1 #
edge $49 -1 -1 $-1 $45 -0.8660254037844386 $38 0.8660254037844386 $33 $50 forward @7 unknown T -1 1.1102230246251565e-16 -0.5 0.5 0.8660254037844386 -0.5 #
coedge $-1 -1 -1 $-1 $36 $22 $27 $41 reversed $25 $-1 #
coedge $-1 -1 -1 $-1 $22 $35 $29 $42 forward $25 $-1 #
integer_attrib-name_attrib-gen-attrib $-1 -1 $-1 $-1 $23 2 1 1 1 1 1 1 1 1 1 1 1 1 1 0 1 1 1 @8 CUBIT_ID 1 #
vertex $51 -1 -1 $-1 $23 $52 #
vertex $53 -1 -1 $-1 $42 $54 #
straight-curve $-1 -1 -1 $-1 0.5 0 -0.5 0 -1 0 I I #
edge $55 -1 -1 $-1 $44 -0.70710678118654746 $38 0.70710678118654746 $35 $56 forward @7 unknown T 0 0 -0.5 0.5 0.8660254037844386 0.5 #
edge $57 -1 -1 $-1 $44 -0.70710678118654746 $39 0.70710678118654746 $36 $58 forward @7 unknown T 0 -0.8660254037844386 -0.5 0.5 0 0.5 #
integer_attrib-name_attrib-gen-attrib $-1 -1 $-1 $-1 $31 2 1 1 1 1 1 1 1 1 1 1 1 1 1 0 1 1 1 @8 CUBIT_ID 4 #
vertex $59 -1 -1 $-1 $42 $60 #
vertex $61 -1 -1 $-1 $34 $62 #
straight-curve $-1 -1 -1 $-1 -0.5 6.1232339957367648e-17 0 -0.70710678118654746 8.6595605623549304e-17 -0.70710678118654746 I I #
integer_attrib-name_attrib-gen-attrib $-1 -1 $-1 $-1 $32 2 1 1 1 1 1 1 1 1 1 1 1 1 1 0 1 1 1 @8 CUBIT_ID 2 #
straight-curve $-1 -1 -1 $-1 -0.25 -0.43301270189221924 -0.5 -0.86602540378443871 0.50000000000000011 0 I I #
integer_attrib-name_attrib-gen-attrib $-1 -1 $-1 $-1 $34 2 1 1 1 1 1 1 1 1 1 1 1 1 1 0 1 1 1 @8 CUBIT_ID 3 #
straight-curve $-1 -1 -1 $-1 -0.25 0.43301270189221935 -0.5 0.86602540378443871 0.49999999999999994 0 I I #
integer_attrib-name_attrib-gen-attrib $-1 -1 $-1 $-1 $38 2 1 1 1 1 1 1 1 1 1 1 1 1 1 0 1 1 1 @8 CUBIT_ID 1 #
point $-1 -1 -1 $-1 0.5 0.8660254037844386 -0.5 #
integer_attrib-name_attrib-gen-attrib $-1 -1 $-1 $-1 $39 2 1 1 1 1 1 1 1 1 1 1 1 1 1 0 1 1 1 @8 CUBIT_ID 2 #
point $-1 -1 -1 $-1 0.5 -0.8660254037844386 -0.5 #
integer_attrib-name_attrib-gen-attrib $-1 -1 $-1 $-1 $41 2 1 1 1 1 1 1 1 1 1 1 1 1 1 0 1 1 1 @8 CUBIT_ID 6 #
straight-curve $-1 -1 -1 $-1 0.25 0.4330127018922193 0 0.35355339059327373 0.61237243569579447 -0.70710678118654746 I I #
integer_attrib-name_attrib-gen-attrib $-1 -1 $-1 $-1 $42 2 1 1 1 1 1 1 1 1 1 1 1 1 1 0 1 1 1 @8 CUBIT_ID 5 #
straight-curve $-1 -1 -1 $-1 0.25 -0.4330127018922193 0 0.35355339059327373 -0.61237243569579447 -0.70710678118654746 I I #
integer_attrib-name_attrib-gen-attrib $-1 -1 $-1 $-1 $44 2 1 1 1 1 1 1 1 1 1 1 1 1 1 0 1 1 1 @8 CUBIT_ID 4 #
point $-1 -1 -1 $-1 0 0 0.5 #
integer_attrib-name_attrib-gen-attrib $-1 -1 $-1 $-1 $45 2 1 1 1 1 1 1 1 1 1 1 1 1 1 0 1 1 1 @8 CUBIT_ID 3 #
point $-1 -1 -1 $-1 -1 1.224646799147353e-16 -0.5 #
End-of-ACIS-data 